<svg width="55" height="79" viewBox="0 0 55 79" fill="none" xmlns="http://www.w3.org/2000/svg">
<path d="M54.092 33.219C54.092 31.5759 52.7305 30.2144 51.0873 30.2144C49.4442 30.2144 48.0827 31.5759 48.0827 33.219V39.2282C48.0827 50.8241 38.6464 60.2605 27.0505 60.2605C15.4546 60.2605 6.01825 50.8241 6.01825 39.2282V33.219C6.01825 31.5759 4.65678 30.2144 3.01364 30.2144C1.3705 30.2144 0.0090332 31.5759 0.0090332 33.219V39.2282C0.0090332 53.1245 10.5252 64.5796 24.0459 66.0819V72.2789H12.0275C10.3843 72.2789 9.02285 73.6404 9.02285 75.2835C9.02285 76.9267 10.3843 78.2881 12.0275 78.2881H42.0735C43.7167 78.2881 45.0781 76.9267 45.0781 75.2835C45.0781 73.6404 43.7167 72.2789 42.0735 72.2789H30.0551V66.0819C43.5758 64.5796 54.092 53.1245 54.092 39.2282V33.219ZM42.0735 15.1914C42.0735 6.92871 35.3132 0.168335 27.0505 0.168335C18.7878 0.168335 12.0275 6.92871 12.0275 15.1914V39.2282C12.0275 47.4909 18.7878 54.2513 27.0505 54.2513C35.3132 54.2513 42.0735 47.4909 42.0735 39.2282V15.1914Z" fill="white" fill-opacity="0.65"/>
</svg>
