<svg width="135" height="195" viewBox="0 0 135 195" fill="none" xmlns="http://www.w3.org/2000/svg">
<g clip-path="url(#clip0)">
<path d="M111.112 163.818L83.4593 150.788L34.625 173.333V178.75L57.5712 191.926C63.4549 195.293 72.5745 195.732 77.7227 192.804L107.876 175.676C109.2 174.944 110.23 173.919 110.818 172.894C113.319 168.063 111.112 163.818 111.112 163.818Z" fill="#150035"/>
<path d="M83.4592 145.372L106.405 158.547C112.289 161.914 113.025 167.185 107.876 170.113L77.7227 187.387C72.5745 190.315 63.4549 190.023 57.5712 186.509L34.625 173.333L83.4592 145.372Z" fill="#39A1FF"/>
<path d="M83.1651 128.829C83.3122 127.658 58.4538 130.732 53.4527 136.441C48.5987 142.004 49.04 165.574 49.04 165.574C49.04 165.574 64.4846 176.993 79.4878 166.599C86.6953 161.622 84.9302 157.23 84.3418 154.009C83.1651 147.714 82.5768 135.124 83.1651 128.829Z" fill="#150035"/>
<path d="M127.587 105.845L0.5 178.896V73.0518L127.587 0V105.845Z" fill="#602619"/>
<path d="M134.5 109.797L7.41333 182.849V77.0044L134.5 3.95264V109.797Z" fill="#150035"/>
<path d="M130.823 95.5968L11.0906 164.55V79.6396L130.823 10.6869V95.5968Z" fill="#39A1FF"/>
<path d="M125.969 26.3513L16.533 89.3018V156.205L125.969 93.2545V26.3513Z" fill="white"/>
<path d="M18.4451 153.131V97.2071L18.7393 97.0607L124.645 36.4526V92.3761L124.351 92.5225L18.4451 153.131ZM19.6218 97.9391V151.081L123.321 91.6441V38.5022L19.6218 97.9391Z" fill="#6C90EA"/>
<path d="M111.995 36.3063L19.0334 89.5946V94.7184L111.995 41.5765V36.3063Z" fill="#39A1FF"/>
<path d="M7.41328 77.0046L0.5 73.0519V178.896L7.41328 182.849V77.0046Z" fill="#150035"/>
<path d="M134.5 3.9527L127.587 0L0.5 73.0518L7.41328 77.0045L134.5 3.9527Z" fill="#150035"/>
<path d="M16.3857 89.4482L31.5361 80.8108V76.5653C31.5361 74.6622 30.3594 73.7838 28.8885 74.5158L19.0334 80.2252C17.5625 81.1036 16.3857 83.2996 16.3857 85.3491V89.4482Z" fill="#150035"/>
<path d="M32.7129 80.0788L47.8633 71.4414V67.196C47.8633 65.2928 46.6866 64.4144 45.2156 65.1464L35.3605 70.8559C33.8896 71.7342 32.7129 73.9302 32.7129 75.9797V80.0788Z" fill="#150035"/>
<path d="M48.8928 70.7095L64.0432 62.0721V57.8266C64.0432 55.9234 62.8665 55.045 61.3956 55.777L51.5405 61.4865C50.0696 62.3649 48.8928 64.5608 48.8928 66.6104V70.7095Z" fill="#150035"/>
<path d="M65.22 61.1937L80.3703 52.5563V48.3108C80.3703 46.4077 79.1936 45.5293 77.7227 46.2613L67.8676 51.9707C66.3967 52.8491 65.22 55.0451 65.22 57.0946V61.1937Z" fill="#150035"/>
<path d="M18.0037 84.9099C18.0037 86.2274 18.8862 86.9594 19.9158 86.3738C20.9455 85.7882 21.828 84.1779 21.828 82.8603C21.828 81.5427 20.9455 80.8108 19.9158 81.3963C18.8862 81.9819 18.0037 83.5923 18.0037 84.9099Z" fill="white"/>
<path d="M18.739 84.6171C18.739 85.4954 19.3274 85.9346 19.9157 85.4954C20.6512 85.0563 21.0925 84.0315 21.0925 83.1531C21.0925 82.2747 20.5041 81.8355 19.9157 82.2747C19.1803 82.7139 18.739 83.7387 18.739 84.6171Z" fill="#39A1FF"/>
<path d="M34.0369 75.3941C34.0369 76.7117 34.9194 77.4437 35.9491 76.8581C36.9787 76.2725 37.8612 74.6621 37.8612 73.3446C37.8612 72.027 36.9787 71.295 35.9491 71.8806C34.9194 72.4662 34.0369 73.9301 34.0369 75.3941Z" fill="white"/>
<path d="M50.3638 65.732C50.3638 67.0496 51.2463 67.7815 52.276 67.196C53.3056 66.6104 54.1881 65 54.1881 63.6824C54.1881 62.3649 53.3056 61.6329 52.276 62.2185C51.2463 62.8041 50.3638 64.4144 50.3638 65.732Z" fill="white"/>
<path d="M66.5439 56.3626C66.5439 57.6802 67.4265 58.4122 68.4561 57.8266C69.4858 57.241 70.3683 55.6306 70.3683 54.3131C70.3683 52.9955 69.4858 52.2635 68.4561 52.8491C67.4265 53.4347 66.5439 55.045 66.5439 56.3626Z" fill="white"/>
<path d="M124.939 33.8176L120.821 36.1599V30.7432L124.939 28.4009V33.8176Z" fill="#FF7631"/>
<path d="M119.644 36.8919L115.525 39.2343V33.6712L119.644 31.3289V36.8919Z" fill="#94B8FF"/>
<path d="M113.025 58.4121L109.936 56.6554C108.465 55.777 106.406 55.9234 104.346 57.0946L38.5966 95.0112C33.8897 97.7928 29.9182 105.113 29.9182 111.408V117.263C29.9182 120.631 31.0949 122.973 32.86 124.144L35.9489 125.901L36.9786 124.437C37.5669 124.291 38.1553 123.998 38.5966 123.705L104.346 85.9346C109.053 83.1531 113.025 75.8333 113.025 69.5383V63.6824C113.025 62.6576 112.878 61.7792 112.731 60.9009L113.025 58.4121Z" fill="#150035"/>
<path d="M41.5385 125.462L107.288 87.6914C111.995 84.9099 115.967 77.5901 115.967 71.295V65.4392C115.967 59.1441 112.142 56.2162 107.288 58.9977L41.5385 96.6216C36.8316 99.4031 32.8601 106.723 32.8601 113.018V118.874C32.8601 125.169 36.8316 128.097 41.5385 125.462Z" fill="#39A1FF"/>
<path d="M42.7151 114.921C42.7151 113.896 43.3035 112.872 44.0389 112.432C44.7744 111.993 45.3627 112.432 45.3627 113.457C45.3627 114.482 44.7744 115.507 44.0389 115.946C43.1564 116.385 42.7151 115.946 42.7151 114.921ZM43.0093 106.137V103.649L45.0685 102.477V104.966L44.6273 110.968L43.3035 111.7L43.0093 106.137Z" fill="white"/>
<path d="M50.3638 99.8423L53.5998 98.0855C55.512 96.9144 56.9829 96.768 56.9829 99.1103C56.9829 100.281 56.5416 101.599 55.8061 102.477C56.6887 102.331 57.4241 102.77 57.4241 104.381C57.4241 106.869 55.8061 108.919 53.7469 110.09L50.3638 112.14V99.8423ZM53.4527 102.917C54.4823 102.331 54.9236 101.453 54.9236 100.574C54.9236 99.6959 54.4823 99.5495 53.4527 100.135L52.423 100.721V103.502L53.4527 102.917ZM53.5998 108.04C54.7765 107.455 55.3649 106.43 55.3649 105.405C55.3649 104.381 54.7765 104.234 53.5998 104.82L52.423 105.552V108.772L53.5998 108.04Z" fill="white"/>
<path d="M60.6602 93.8401L63.1608 92.3761L66.1026 103.063L63.8962 104.381L62.7195 98.8175C62.4253 97.7928 62.2782 96.4752 61.984 95.304C61.6898 96.768 61.5428 98.3784 61.2486 99.6959L60.0718 106.577L57.8655 107.748L60.6602 93.8401ZM59.6306 101.599L64.0433 98.9639V101.16L59.6306 103.795V101.599Z" fill="white"/>
<path d="M66.9851 90.1802L69.1915 89.009L71.5449 93.6937L72.4275 95.8896C72.2804 94.5721 72.1333 92.9617 72.1333 91.4978V87.1059L74.1926 85.9347V98.232L72.1333 99.5496L69.6327 94.8649L68.7502 92.6689C68.8973 93.9865 69.0444 95.5968 69.0444 96.9144V101.306L66.9851 102.477V90.1802Z" fill="white"/>
<path d="M76.3989 84.7634L78.6053 83.5923L80.9587 88.277L81.8413 90.4729C81.6942 89.1553 81.5471 87.545 81.5471 86.081V81.6891L83.6064 80.5179V92.8153L81.4 93.9864L79.0466 89.3017L78.164 87.1058C78.3111 88.4234 78.4582 90.0337 78.4582 91.3513V95.7432L76.3989 96.9143V84.7634Z" fill="white"/>
<path d="M85.9598 79.3467L91.8435 75.9796V78.322L88.0191 80.5179V83.0066L91.2551 81.2499V83.4458L88.0191 85.2026V87.9841L91.8435 85.7882V88.1305L85.8127 91.4976V79.3467H85.9598Z" fill="white"/>
<path d="M93.7556 74.8085L96.4033 73.3445C99.198 71.7342 101.11 72.4662 101.11 76.7117C101.11 80.9572 99.3451 84.0315 96.5504 85.4954L93.7556 87.1058V74.8085ZM96.2562 83.4459C97.8742 82.5675 98.9038 80.9572 98.9038 78.0292C98.9038 75.1013 97.8742 74.8085 96.2562 75.6869L95.8149 75.9797V83.8851L96.2562 83.4459Z" fill="white"/>
<path d="M105.67 78.7612C105.67 77.7364 106.259 76.7116 106.994 76.2725C107.729 75.8333 108.318 76.2725 108.318 77.2972C108.318 78.322 107.729 79.3468 106.994 79.786C106.259 80.2252 105.67 79.786 105.67 78.7612ZM105.964 69.9774V67.4887L108.024 66.3175V68.8062L107.729 74.8085L106.406 75.5405L105.964 69.9774Z" fill="white"/>
<path d="M67.5299 45.1659C74.6558 28.5002 72.7363 11.7302 63.2426 7.7092C53.7489 3.68814 40.2761 13.9387 33.1502 30.6044C26.0242 47.2701 27.9437 64.04 37.4374 68.061C46.9311 72.0821 60.404 61.8316 67.5299 45.1659Z" fill="#150035"/>
<path d="M67.8679 10.3942L63.7493 8.05188L35.5078 67.0496L39.9205 69.6848L67.8679 10.3942Z" fill="#150035"/>
<path d="M70.8993 47.0552C78.0252 30.3894 76.1057 13.6195 66.612 9.59846C57.1183 5.57741 43.6454 15.8279 36.5195 32.4936C29.3936 49.1593 31.3131 65.9293 40.8068 69.9503C50.3005 73.9714 63.7734 63.7209 70.8993 47.0552Z" fill="#39A1FF"/>
<path d="M67.9214 45.794C73.8067 32.0299 72.2146 18.1769 64.3655 14.8524C56.5164 11.5279 45.3825 19.9908 39.4972 33.7549C33.612 47.519 35.204 61.372 43.0532 64.6965C50.9023 68.021 62.0362 59.5581 67.9214 45.794Z" fill="white"/>
<path d="M37.2729 66.3176L40.2148 68.5136L68.6033 14.3469L65.6615 12.2974L37.2729 66.3176Z" fill="#39A1FF"/>
<path d="M57.7177 165.325C64.6527 149.106 62.8209 132.8 53.6262 128.906C44.4315 125.011 31.3558 135.003 24.4208 151.222C17.4857 167.441 19.3175 183.747 28.5122 187.641C37.7069 191.535 50.7826 181.544 57.7177 165.325Z" fill="#150035"/>
<path d="M58.1599 131.464L54.1884 129.122L26.6824 186.655L30.948 189.144L58.1599 131.464Z" fill="#150035"/>
<path d="M61.0174 167.221C67.9507 151.002 66.1175 134.697 56.9228 130.804C47.7281 126.91 34.6538 136.903 27.7205 153.122C20.7873 169.341 22.6205 185.646 31.8152 189.539C41.0099 193.433 54.0842 183.44 61.0174 167.221Z" fill="#39A1FF"/>
<path d="M58.1751 166.018C63.9316 152.551 62.417 139.017 54.7921 135.789C47.1673 132.56 36.3195 140.859 30.563 154.326C24.8065 167.792 26.3211 181.326 33.9459 184.555C41.5708 187.784 52.4185 179.484 58.1751 166.018Z" fill="white"/>
<path d="M34.7722 172.748L59.7777 158.401V150.495L34.7722 164.842V172.748Z" fill="#39A1FF"/>
<path d="M59.7778 150.496L56.983 148.739L31.9775 163.232L34.7723 164.842L59.7778 150.496Z" fill="#150035"/>
<path d="M34.7723 164.842L31.9775 163.232V171.137L34.7723 172.748V164.842Z" fill="#39A1FF"/>
<path d="M121.556 29.8649L105.817 2.63519L102.728 0.878435C100.669 -0.439132 97.286 1.90321 95.8151 6.1487L77.7229 55.0451C76.3991 58.4122 76.9874 61.3401 78.6054 62.2185L81.8414 63.9753L83.0182 61.7793L82.4298 61.4865L117.585 41.2838C121.262 39.3807 123.468 32.7928 121.556 29.8649Z" fill="#150035"/>
<path d="M99.1981 8.19825L81.1059 56.9482C79.1937 62.0721 81.4001 66.0248 84.9303 63.9753L121.115 43.3334C124.645 41.2838 126.851 34.8424 124.939 31.9145L106.994 3.65996C105.229 0.878433 100.963 3.36717 99.1981 8.19825Z" fill="#39A1FF"/>
<path d="M84.7832 61.6329C84.3419 61.6329 84.0478 61.4865 83.7536 61.3401C82.871 60.6081 83.0181 58.9978 83.9007 56.509L101.257 9.66216C102.14 7.61261 103.317 6.44144 104.493 6.29504C105.229 6.29504 105.964 6.58784 106.406 7.46621L122.88 33.3784C123.615 34.4032 123.762 35.7207 123.321 37.0383C122.88 39.0878 121.409 40.8446 119.497 42.0158L86.9896 60.9009C86.107 61.3401 85.3716 61.6329 84.7832 61.6329ZM101.993 9.95495L84.6361 56.8018C83.4594 59.8761 84.0478 60.6081 84.1949 60.7545C84.489 61.0473 85.3716 60.9009 86.4012 60.1689L119.055 41.2838C120.673 40.259 121.997 38.6487 122.439 36.8919C122.586 36.0135 122.733 34.8423 121.997 33.8176L105.817 7.9054C105.523 7.46622 105.229 7.17342 104.641 7.17342C104.641 7.17342 104.641 7.17342 104.493 7.17342C103.905 7.17342 102.875 7.9054 101.993 9.95495Z" fill="white"/>
<path d="M105.817 33.8176C105.229 33.5248 104.494 33.6712 103.758 34.1104C102.876 34.696 101.993 35.5744 101.405 36.8919C100.669 38.2095 100.375 39.3807 100.375 40.6982C100.375 42.0158 100.669 42.8942 101.405 43.3334L105.523 45.8221L109.936 36.3063L105.817 33.8176Z" fill="#94B8FF"/>
<path d="M110.23 36.4528C109.495 35.8672 108.759 36.0136 107.73 36.4528C106.847 37.0383 105.964 37.9167 105.376 39.2343C104.641 40.5519 104.346 41.723 104.346 43.0406C104.346 44.3582 104.641 45.2365 105.376 45.6757C105.964 46.1149 106.847 46.1149 107.877 45.5293C108.759 44.9438 109.642 44.0654 110.377 42.7478C111.113 41.4302 111.407 40.2591 111.407 38.9415C111.407 37.6239 110.966 37.0383 110.23 36.4528Z" fill="white"/>
<path d="M105.082 20.4955L100.963 18.1532L101.258 34.1104L105.376 36.5991L105.082 20.4955Z" fill="#ABCBFF"/>
<path d="M110.671 17.4212L106.553 14.9325L100.963 18.1532L105.082 20.4956L110.671 17.4212Z" fill="#BBF1FF"/>
<path d="M110.524 33.6713L110.671 17.4213L105.082 20.4956L105.376 36.5992L110.524 33.6713Z" fill="white"/>
</g>
<defs>
<clipPath id="clip0">
<rect width="134" height="195" fill="white" transform="translate(0.5)"/>
</clipPath>
</defs>
</svg>
