<svg width="375" height="194" viewBox="0 0 375 194" fill="none" xmlns="http://www.w3.org/2000/svg">
<path d="M372.979 99.2193H1.48834C0.654871 99.2193 0 98.1334 0 96.7515C0 95.3695 0.654871 94.2837 1.48834 94.2837H372.979C373.812 94.2837 374.467 95.3695 374.467 96.7515C374.467 98.1334 373.753 99.2193 372.979 99.2193Z" fill="#021341"/>
<path d="M361.004 106.623C360.014 104.945 359.42 103.365 359.024 101.687C358.628 100.009 358.529 98.4297 358.529 96.7516C358.529 95.0735 358.727 93.4941 359.024 91.816C359.42 90.138 359.915 88.5586 361.004 86.8805C361.994 88.5586 362.588 90.138 362.984 91.816C363.38 93.4941 363.479 95.0735 363.479 96.7516C363.479 98.4297 363.281 100.009 362.984 101.687C362.588 103.365 362.093 104.945 361.004 106.623Z" fill="#021341"/>
<path d="M356.053 113.335C355.063 110.571 354.469 107.807 354.073 105.043C353.677 102.279 353.578 99.5155 353.578 96.7516C353.578 93.9877 353.776 91.2238 354.073 88.4598C354.469 85.6959 354.964 82.932 356.053 80.1681C357.043 82.932 357.637 85.6959 358.033 88.4598C358.429 91.2238 358.528 93.9877 358.528 96.7516C358.528 99.5155 358.33 102.279 358.033 105.043C357.637 107.807 357.142 110.571 356.053 113.335Z" fill="#021341"/>
<path d="M351.104 116.79C350.114 113.434 349.52 110.078 349.124 106.721C348.728 103.365 348.629 100.009 348.629 96.6528C348.629 93.2967 348.827 89.9405 349.124 86.5843C349.52 83.2281 350.015 79.8719 351.104 76.5157C352.094 79.8719 352.688 83.2281 353.084 86.5843C353.48 89.9405 353.579 93.2967 353.579 96.6528C353.579 100.009 353.381 103.365 353.084 106.721C352.688 110.176 352.193 113.532 351.104 116.79Z" fill="#021341"/>
<path d="M346.154 120.837C345.164 116.79 344.57 112.842 344.174 108.794C343.778 104.747 343.679 100.799 343.679 96.7516C343.679 92.7044 343.877 88.756 344.174 84.7088C344.57 80.6616 345.065 76.7132 346.154 72.666C347.144 76.7132 347.738 80.6616 348.134 84.7088C348.53 88.756 348.629 92.7044 348.629 96.7516C348.629 100.799 348.431 104.747 348.134 108.794C347.738 112.842 347.243 116.889 346.154 120.837Z" fill="#021341"/>
<path d="M341.204 117.382C340.214 113.927 339.62 110.473 339.224 107.018C338.828 103.563 338.729 100.108 338.729 96.6529C338.729 93.1981 338.927 89.7432 339.224 86.2883C339.62 82.8334 340.115 79.3785 341.204 75.9236C342.194 79.3785 342.788 82.8334 343.184 86.2883C343.58 89.7432 343.679 93.1981 343.679 96.6529C343.679 100.108 343.481 103.563 343.184 107.018C342.788 110.571 342.293 113.927 341.204 117.382Z" fill="#021341"/>
<path d="M336.254 114.618C335.264 111.657 334.67 108.696 334.274 105.734C333.878 102.773 333.779 99.8117 333.779 96.8504C333.779 93.889 333.977 90.9277 334.274 87.9663C334.67 85.005 335.165 82.0437 336.254 79.0823C337.244 82.0437 337.838 85.005 338.234 87.9663C338.63 90.9277 338.729 93.889 338.729 96.8504C338.729 99.8117 338.531 102.773 338.234 105.734C337.838 108.696 337.343 111.657 336.254 114.618Z" fill="#021341"/>
<path d="M331.304 111.558C330.314 109.09 329.72 106.623 329.324 104.155C328.928 101.687 328.829 99.2193 328.829 96.7515C328.829 94.2837 329.027 91.8159 329.324 89.3482C329.72 86.8804 330.215 84.4126 331.304 81.9448C332.294 84.4126 332.888 86.8804 333.283 89.3482C333.679 91.8159 333.778 94.2837 333.778 96.7515C333.778 99.2193 333.58 101.687 333.283 104.155C332.888 106.623 332.393 109.09 331.304 111.558Z" fill="#021341"/>
<path d="M326.354 106.623C325.364 104.945 324.77 103.365 324.374 101.687C323.978 100.009 323.879 98.4297 323.879 96.7516C323.879 95.0735 324.077 93.4941 324.374 91.816C324.77 90.138 325.265 88.5586 326.354 86.8805C327.344 88.5586 327.938 90.138 328.334 91.816C328.73 93.4941 328.829 95.0735 328.829 96.7516C328.829 98.4297 328.631 100.009 328.334 101.687C327.938 103.365 327.443 104.945 326.354 106.623Z" fill="#021341"/>
<path d="M321.404 104.056C320.414 102.872 319.82 101.588 319.424 100.404C319.028 99.2194 318.929 97.9362 318.929 96.7517C318.929 95.5671 319.127 94.2839 319.424 93.0993C319.82 91.9148 320.315 90.6316 321.404 89.447C322.394 90.6316 322.988 91.9148 323.384 93.0993C323.78 94.2839 323.879 95.5671 323.879 96.7517C323.879 97.9362 323.681 99.2194 323.384 100.404C322.988 101.687 322.493 102.872 321.404 104.056Z" fill="#021341"/>
<path d="M316.454 102.97C315.464 101.885 314.87 100.897 314.474 99.8116C314.078 98.7258 313.979 97.7387 313.979 96.6528C313.979 95.567 314.177 94.5799 314.474 93.4941C314.87 92.4083 315.365 91.4212 316.454 90.3353C317.444 91.4212 318.038 92.4083 318.434 93.4941C318.83 94.5799 318.929 95.567 318.929 96.6528C318.929 97.7387 318.731 98.7258 318.434 99.8116C318.038 100.897 317.543 101.983 316.454 102.97Z" fill="#021341"/>
<path d="M311.504 102.97C310.514 101.885 309.92 100.897 309.524 99.8116C309.128 98.7258 309.029 97.7387 309.029 96.6528C309.029 95.567 309.227 94.5799 309.524 93.4941C309.92 92.4083 310.415 91.4212 311.504 90.3353C312.494 91.4212 313.088 92.4083 313.484 93.4941C313.88 94.5799 313.979 95.567 313.979 96.6528C313.979 97.7387 313.781 98.7258 313.484 99.8116C313.088 100.897 312.593 101.983 311.504 102.97Z" fill="#021341"/>
<path d="M306.554 116.691C305.564 113.335 304.97 110.078 304.574 106.721C304.178 103.365 304.079 100.108 304.079 96.7516C304.079 93.3954 304.277 90.138 304.574 86.7818C304.97 83.4256 305.465 80.1681 306.554 76.812C307.544 80.1681 308.138 83.4256 308.534 86.7818C308.93 90.138 309.029 93.3954 309.029 96.7516C309.029 100.108 308.831 103.365 308.534 106.721C308.138 110.078 307.643 113.335 306.554 116.691Z" fill="#021341"/>
<path d="M301.603 129.425C300.613 123.996 300.019 118.567 299.623 113.138C299.227 107.709 299.128 102.279 299.128 96.8503C299.128 91.4212 299.326 85.9921 299.623 80.5629C300.019 75.1338 300.514 69.7047 301.603 64.2756C302.593 69.7047 303.187 75.1338 303.583 80.5629C303.979 85.9921 304.078 91.4212 304.078 96.8503C304.078 102.279 303.88 107.709 303.583 113.138C303.187 118.567 302.692 123.996 301.603 129.425Z" fill="#021341"/>
<path d="M296.654 134.854C295.664 128.536 295.07 122.12 294.674 115.803C294.278 109.485 294.179 103.069 294.179 96.7515C294.179 90.4339 294.377 84.0177 294.674 77.7002C295.07 71.3827 295.565 64.9664 296.654 58.6489C297.644 64.9664 298.238 71.3827 298.634 77.7002C299.03 84.0177 299.129 90.4339 299.129 96.7515C299.129 103.069 298.931 109.485 298.634 115.803C298.238 122.12 297.743 128.536 296.654 134.854Z" fill="#021341"/>
<path d="M291.704 144.824C290.714 136.828 290.12 128.833 289.823 120.837C289.427 112.841 289.328 104.846 289.229 96.8501C289.229 88.8545 289.427 80.8589 289.724 72.8632C290.12 64.8676 290.615 56.872 291.704 48.8764C292.694 56.872 293.288 64.8676 293.684 72.8632C294.08 80.8589 294.179 88.8545 294.179 96.8501C294.179 104.846 293.981 112.841 293.585 120.837C293.288 128.833 292.793 136.828 291.704 144.824Z" fill="#021341"/>
<path d="M286.754 132.386C285.764 126.464 285.17 120.541 284.774 114.618C284.378 108.696 284.279 102.773 284.279 96.8503C284.279 90.9276 284.477 85.0049 284.774 79.0822C285.17 73.1596 285.665 67.2369 286.754 61.3142C287.744 67.2369 288.338 73.1596 288.734 79.0822C289.13 85.0049 289.229 90.9276 289.229 96.8503C289.229 102.773 289.031 108.696 288.734 114.618C288.338 120.541 287.843 126.464 286.754 132.386Z" fill="#021341"/>
<path d="M281.804 151.536C280.814 142.356 280.22 133.275 279.923 124.095C279.527 114.914 279.428 105.833 279.329 96.6529C279.329 87.4727 279.527 78.3913 279.824 69.2111C280.22 60.031 280.715 50.9496 281.804 41.7694C282.794 50.9496 283.388 60.031 283.784 69.2111C284.18 78.3913 284.279 87.4727 284.279 96.6529C284.279 105.833 284.081 114.914 283.685 124.095C283.388 133.275 282.893 142.455 281.804 151.536Z" fill="#021341"/>
<path d="M276.855 155.781C275.865 145.91 275.271 136.137 274.974 126.266C274.578 116.395 274.479 106.623 274.38 96.7514C274.38 86.8803 274.578 77.1079 274.875 67.2368C275.271 57.3656 275.766 47.5932 276.855 37.7221C277.845 47.5932 278.439 57.3656 278.835 67.2368C279.231 77.1079 279.33 86.8803 279.33 96.7514C279.33 106.623 279.132 116.395 278.736 126.266C278.439 136.137 277.944 146.008 276.855 155.781Z" fill="#021341"/>
<path d="M271.904 148.18C270.914 139.592 270.32 131.004 270.023 122.515C269.627 113.927 269.528 105.34 269.429 96.8503C269.429 88.2625 269.627 79.6746 269.924 71.1854C270.32 62.5976 270.815 54.0097 271.904 45.5205C272.894 54.1084 273.488 62.6963 273.884 71.1854C274.28 79.7733 274.379 88.3612 274.379 96.8503C274.379 105.438 274.181 114.026 273.785 122.515C273.488 131.004 272.993 139.592 271.904 148.18Z" fill="#021341"/>
<path d="M266.954 129.524C265.964 124.095 265.37 118.567 264.974 113.138C264.578 107.709 264.479 102.181 264.479 96.7516C264.479 91.3225 264.677 85.7947 264.974 80.3656C265.37 74.9364 265.865 69.4086 266.954 63.9795C267.944 69.4086 268.538 74.9364 268.934 80.3656C269.33 85.7947 269.429 91.3225 269.429 96.7516C269.429 102.181 269.231 107.709 268.934 113.138C268.538 118.567 268.043 123.996 266.954 129.524Z" fill="#021341"/>
<path d="M262.005 138.802C261.015 131.794 260.421 124.785 260.025 117.777C259.629 110.768 259.53 103.76 259.53 96.7515C259.53 89.743 259.728 82.7345 260.025 75.726C260.421 68.7175 260.916 61.709 262.005 54.7005C262.995 61.709 263.589 68.7175 263.985 75.726C264.381 82.7345 264.48 89.743 264.48 96.7515C264.48 103.76 264.282 110.768 263.985 117.777C263.589 124.785 263.094 131.794 262.005 138.802Z" fill="#021341"/>
<path d="M257.054 135.545C256.064 129.03 255.47 122.614 255.074 116.099C254.678 109.584 254.579 103.168 254.579 96.6529C254.579 90.138 254.777 83.7217 255.074 77.2068C255.47 70.6919 255.965 64.2756 257.054 57.7607C258.044 64.2756 258.638 70.6919 259.034 77.2068C259.43 83.7217 259.529 90.138 259.529 96.6529C259.529 103.168 259.331 109.584 259.034 116.099C258.638 122.614 258.143 129.129 257.054 135.545Z" fill="#021341"/>
<path d="M252.104 131.991C251.114 126.167 250.52 120.245 250.124 114.421C249.728 108.597 249.629 102.674 249.629 96.8502C249.629 91.0262 249.827 85.1036 250.124 79.2796C250.52 73.4556 251.015 67.5329 252.104 61.709C253.094 67.5329 253.688 73.4556 254.084 79.2796C254.48 85.1036 254.579 91.0262 254.579 96.8502C254.579 102.674 254.381 108.597 254.084 114.421C253.688 120.245 253.193 126.069 252.104 131.991Z" fill="#021341"/>
<path d="M247.154 137.223C246.164 130.511 245.57 123.7 245.174 116.987C244.778 110.275 244.679 103.464 244.679 96.7516C244.679 90.0392 244.877 83.2281 245.174 76.5158C245.57 69.8034 246.065 62.9923 247.154 56.28C248.144 62.9923 248.738 69.8034 249.134 76.5158C249.53 83.2281 249.629 90.0392 249.629 96.7516C249.629 103.464 249.431 110.275 249.134 116.987C248.738 123.7 248.243 130.511 247.154 137.223Z" fill="#021341"/>
<path d="M242.204 133.176C241.214 127.056 240.62 121.035 240.224 114.914C239.828 108.794 239.729 102.773 239.729 96.6529C239.729 90.5328 239.927 84.5114 240.224 78.3913C240.62 72.2712 241.115 66.2498 242.204 60.1297C243.194 66.2498 243.788 72.2712 244.184 78.3913C244.58 84.5114 244.679 90.5328 244.679 96.6529C244.679 102.773 244.481 108.794 244.184 114.914C243.788 121.035 243.293 127.155 242.204 133.176Z" fill="#021341"/>
<path d="M237.254 130.807C236.264 125.082 235.67 119.455 235.274 113.73C234.878 108.005 234.779 102.378 234.779 96.6529C234.779 90.9276 234.977 85.3011 235.274 79.5758C235.67 73.8506 236.165 68.224 237.254 62.4988C238.244 68.224 238.838 73.8506 239.234 79.5758C239.63 85.3011 239.729 90.9276 239.729 96.6529C239.729 102.378 239.531 108.005 239.234 113.73C238.838 119.455 238.343 125.18 237.254 130.807Z" fill="#021341"/>
<path d="M232.305 127.451C231.315 122.318 230.721 117.185 230.325 112.151C229.929 107.018 229.83 101.885 229.83 96.8503C229.83 91.7173 230.028 86.5843 230.325 81.5501C230.721 76.4171 231.216 71.2841 232.305 66.2498C233.295 71.3828 233.889 76.5158 234.285 81.5501C234.681 86.683 234.78 91.816 234.78 96.8503C234.78 101.983 234.582 107.116 234.285 112.151C233.889 117.185 233.394 122.318 232.305 127.451Z" fill="#021341"/>
<path d="M227.354 123.7C226.364 119.258 225.77 114.717 225.374 110.275C224.978 105.833 224.879 101.292 224.879 96.8504C224.879 92.4084 225.077 87.8677 225.374 83.4257C225.77 78.9836 226.265 74.4429 227.354 70.0009C228.344 74.4429 228.938 78.9836 229.334 83.4257C229.73 87.8677 229.829 92.4084 229.829 96.8504C229.829 101.292 229.631 105.833 229.334 110.275C228.938 114.717 228.443 119.159 227.354 123.7Z" fill="#021341"/>
<path d="M222.405 118.271C221.415 114.717 220.821 111.065 220.425 107.511C220.029 103.957 219.93 100.305 219.93 96.7515C219.93 93.1979 220.128 89.5456 220.425 85.992C220.821 82.4384 221.316 78.7861 222.405 75.2325C223.395 78.7861 223.989 82.4384 224.385 85.992C224.781 89.5456 224.88 93.1979 224.88 96.7515C224.88 100.305 224.682 103.957 224.385 107.511C223.989 111.163 223.494 114.717 222.405 118.271Z" fill="#021341"/>
<path d="M217.455 130.511C216.465 124.884 215.871 119.258 215.475 113.631C215.079 108.005 214.98 102.378 214.98 96.7516C214.98 91.125 215.178 85.4985 215.475 79.8719C215.871 74.2454 216.366 68.6189 217.455 62.9923C218.445 68.6189 219.039 74.2454 219.435 79.8719C219.831 85.4985 219.93 91.125 219.93 96.7516C219.93 102.378 219.732 108.005 219.435 113.631C219.039 119.258 218.544 124.884 217.455 130.511Z" fill="#021341"/>
<path d="M212.504 126.266C211.514 121.331 210.92 116.395 210.524 111.459C210.128 106.524 210.029 101.588 210.029 96.6528C210.029 91.7172 210.227 86.7817 210.524 81.8461C210.92 76.9106 211.415 71.975 212.504 67.0394C213.494 71.975 214.088 76.9106 214.484 81.8461C214.88 86.7817 214.979 91.7172 214.979 96.6528C214.979 101.588 214.781 106.524 214.484 111.459C214.088 116.494 213.593 121.331 212.504 126.266Z" fill="#021341"/>
<path d="M207.555 162.394C206.565 151.437 205.971 140.481 205.674 129.524C205.278 118.567 205.179 107.61 205.08 96.6528C205.08 85.6958 205.278 74.7389 205.575 63.7819C205.971 52.825 206.466 41.868 207.555 30.9111C208.545 41.868 209.139 52.825 209.535 63.7819C209.931 74.7389 210.03 85.6958 210.03 96.6528C210.03 107.61 209.832 118.567 209.436 129.524C209.139 140.481 208.644 151.437 207.555 162.394Z" fill="#021341"/>
<path d="M202.605 175.721C201.615 162.592 201.021 149.365 200.724 136.236C200.526 129.622 200.427 123.107 200.328 116.494L200.229 96.7515L200.328 77.0093C200.427 70.3956 200.526 63.8807 200.724 57.267C201.12 44.1384 201.615 30.9111 202.704 17.7825C203.694 30.9111 204.288 44.1384 204.684 57.267C204.882 63.8807 204.981 70.3956 205.08 77.0093L205.179 96.7515L205.08 116.494C204.981 123.107 204.882 129.622 204.684 136.236C204.189 149.365 203.694 162.592 202.605 175.721Z" fill="#021341"/>
<path d="M197.655 187.27C196.665 172.167 196.071 157.064 195.774 141.961C195.576 134.459 195.477 126.858 195.378 119.356L195.279 96.7515L195.378 74.1466C195.477 66.6446 195.576 59.0438 195.774 51.5417C196.17 36.4389 196.665 21.3361 197.754 6.23328C198.744 21.3361 199.338 36.4389 199.734 51.5417C199.932 59.0438 200.031 66.6446 200.13 74.1466L200.229 96.7515L200.13 119.356C200.031 126.858 199.932 134.459 199.734 141.961C199.239 157.064 198.744 172.167 197.655 187.27Z" fill="#021341"/>
<path d="M192.705 181.15C191.715 167.034 191.121 153.017 190.824 138.901C190.626 131.893 190.527 124.786 190.428 117.777L190.329 96.6529L190.428 75.5287C190.527 68.5202 190.626 61.413 190.824 54.4045C191.22 40.2888 191.715 26.2718 192.804 12.1561C193.794 26.1731 194.388 40.2888 194.784 54.4045C194.982 61.413 195.081 68.5202 195.18 75.5287L195.279 96.6529L195.18 117.777C195.081 124.786 194.982 131.893 194.784 138.901C194.289 153.017 193.794 167.133 192.705 181.15Z" fill="#021341"/>
<path d="M187.755 165.751C186.765 154.3 186.171 142.751 185.874 131.301C185.478 119.85 185.379 108.301 185.28 96.8503C185.28 85.3998 185.478 73.8506 185.775 62.4001C186.171 50.9496 186.666 39.4003 187.755 27.9498C188.745 39.4003 189.339 50.9496 189.735 62.4001C190.131 73.8506 190.23 85.3998 190.23 96.8503C190.23 108.301 190.032 119.85 189.636 131.301C189.339 142.751 188.844 154.202 187.755 165.751Z" fill="#021341"/>
<path d="M182.805 161.21C181.815 150.451 181.221 139.691 180.924 128.931C180.528 118.172 180.429 107.412 180.33 96.6529C180.33 85.8934 180.528 75.1339 180.825 64.3743C181.221 53.6148 181.716 42.8553 182.805 32.0958C183.795 42.8553 184.389 53.6148 184.785 64.3743C185.181 75.1339 185.28 85.8934 185.28 96.6529C185.28 107.412 185.082 118.172 184.686 128.931C184.389 139.79 183.894 150.549 182.805 161.21Z" fill="#021341"/>
<path d="M177.854 188.849C176.865 173.45 176.271 158.15 175.974 142.751C175.776 135.052 175.677 127.352 175.578 119.751L175.479 96.7516L175.578 73.7519C175.677 66.0524 175.776 58.353 175.974 50.7522C176.37 35.3532 176.865 20.053 177.954 4.65405C178.943 20.053 179.537 35.3532 179.933 50.7522C180.131 58.4517 180.23 66.1511 180.329 73.7519L180.428 96.7516L180.329 119.751C180.23 127.451 180.131 135.15 179.933 142.751C179.438 158.15 178.943 173.549 177.854 188.849Z" fill="#021341"/>
<path d="M172.906 193.291C171.916 177.201 171.322 161.111 171.025 145.021C170.827 136.927 170.728 128.931 170.629 120.837L170.53 96.6528L170.629 72.4686C170.728 64.3743 170.827 56.3786 171.025 48.2843C171.421 32.1944 171.916 16.1045 173.005 0.0145264C173.995 16.1045 174.589 32.1944 174.985 48.2843C175.183 56.3786 175.282 64.3743 175.381 72.4686L175.48 96.6528L175.381 120.837C175.282 128.931 175.183 136.927 174.985 145.021C174.49 161.111 173.995 177.201 172.906 193.291Z" fill="#021341"/>
<path d="M167.955 190.626C166.965 174.931 166.371 159.334 166.074 143.639C165.876 135.841 165.777 127.944 165.678 120.146L165.579 96.6528L165.678 73.1595C165.777 65.3613 165.876 57.4644 166.074 49.6662C166.47 33.9711 166.965 18.3748 168.054 2.67969C169.044 18.3748 169.638 33.9711 170.034 49.6662C170.232 57.4644 170.331 65.3613 170.43 73.1595L170.529 96.6528L170.43 120.146C170.331 127.944 170.232 135.841 170.034 143.639C169.539 159.334 169.044 175.03 167.955 190.626Z" fill="#021341"/>
<path d="M163.005 159.532C162.015 149.068 161.421 138.605 161.124 128.142C160.728 117.678 160.629 107.215 160.53 96.7515C160.53 86.2881 160.728 75.8248 161.025 65.3614C161.421 54.898 161.916 44.4346 163.005 33.9712C163.995 44.4346 164.589 54.898 164.985 65.3614C165.381 75.8248 165.48 86.2881 165.48 96.7515C165.48 107.215 165.282 117.678 164.886 128.142C164.589 138.605 164.094 149.068 163.005 159.532Z" fill="#021341"/>
<path d="M158.055 154.596C157.065 144.923 156.471 135.348 156.174 125.674C155.778 116 155.679 106.425 155.58 96.7515C155.58 87.0778 155.778 77.5028 156.075 67.8291C156.471 58.1554 156.966 48.5804 158.055 38.9067C159.045 48.5804 159.639 58.1554 160.035 67.8291C160.431 77.5028 160.53 87.0778 160.53 96.7515C160.53 106.425 160.332 116 159.936 125.674C159.639 135.348 159.144 144.923 158.055 154.596Z" fill="#021341"/>
<path d="M153.105 150.845C152.115 141.862 151.521 132.781 151.224 123.798C150.828 114.816 150.729 105.734 150.63 96.7514C150.63 87.7687 150.828 78.6873 151.125 69.7045C151.521 60.7218 152.016 51.6404 153.105 42.6577C154.095 51.6404 154.689 60.7218 155.085 69.7045C155.481 78.6873 155.58 87.7687 155.58 96.7514C155.58 105.734 155.382 114.816 154.986 123.798C154.689 132.781 154.194 141.764 153.105 150.845Z" fill="#021341"/>
<path d="M148.155 157.854C147.165 147.687 146.571 137.519 146.274 127.352C145.878 117.185 145.779 107.018 145.68 96.8503C145.68 86.683 145.878 76.5158 146.175 66.3485C146.571 56.1813 147.066 46.014 148.155 35.8467C149.145 46.014 149.739 56.1813 150.135 66.3485C150.531 76.5158 150.63 86.683 150.63 96.8503C150.63 107.018 150.432 117.185 150.036 127.352C149.739 137.519 149.244 147.687 148.155 157.854Z" fill="#021341"/>
<path d="M143.206 142.85C142.216 135.15 141.622 127.451 141.226 119.85C140.83 112.151 140.731 104.451 140.731 96.8503C140.731 89.1508 140.929 81.4514 141.226 73.8506C141.622 66.1511 142.117 58.4517 143.206 50.8509C144.196 58.5504 144.79 66.2498 145.186 73.8506C145.582 81.5501 145.681 89.2496 145.681 96.8503C145.681 104.55 145.483 112.249 145.186 119.85C144.79 127.451 144.295 135.15 143.206 142.85Z" fill="#021341"/>
<path d="M138.256 137.618C137.266 130.807 136.672 123.996 136.276 117.185C135.88 110.374 135.781 103.563 135.781 96.7515C135.781 89.9404 135.979 83.1293 136.276 76.3182C136.672 69.5072 137.167 62.6961 138.256 55.885C139.246 62.6961 139.84 69.5072 140.236 76.3182C140.632 83.1293 140.731 89.9404 140.731 96.7515C140.731 103.563 140.533 110.374 140.236 117.185C139.84 123.996 139.345 130.807 138.256 137.618Z" fill="#021341"/>
<path d="M133.305 139C132.315 131.991 131.721 124.884 131.325 117.876C130.929 110.867 130.83 103.76 130.83 96.7516C130.83 89.7431 131.028 82.6359 131.325 75.6274C131.721 68.6189 132.216 61.5117 133.305 54.5032C134.295 61.5117 134.889 68.6189 135.285 75.6274C135.681 82.6359 135.78 89.7431 135.78 96.7516C135.78 103.76 135.582 110.867 135.285 117.876C134.889 124.884 134.394 131.991 133.305 139Z" fill="#021341"/>
<path d="M128.356 135.545C127.366 129.129 126.772 122.614 126.376 116.198C125.98 109.781 125.881 103.266 125.881 96.8501C125.881 90.4339 126.079 83.919 126.376 77.5027C126.772 71.0865 127.267 64.5716 128.356 58.1553C129.346 64.5716 129.94 71.0865 130.336 77.5027C130.732 83.919 130.831 90.4339 130.831 96.8501C130.831 103.266 130.633 109.781 130.336 116.198C129.94 122.614 129.445 129.03 128.356 135.545Z" fill="#021341"/>
<path d="M123.406 139C122.416 131.991 121.822 124.884 121.426 117.876C121.03 110.867 120.931 103.76 120.931 96.7516C120.931 89.7431 121.129 82.6359 121.426 75.6274C121.822 68.6189 122.317 61.5117 123.406 54.5032C124.396 61.5117 124.99 68.6189 125.386 75.6274C125.782 82.6359 125.881 89.7431 125.881 96.7516C125.881 103.76 125.683 110.867 125.386 117.876C124.99 124.884 124.495 131.991 123.406 139Z" fill="#021341"/>
<path d="M118.455 125.773C117.465 120.936 116.871 116.099 116.475 111.262C116.079 106.425 115.98 101.588 115.98 96.7516C115.98 91.9147 116.178 87.0779 116.475 82.241C116.871 77.4042 117.366 72.5673 118.455 67.7305C119.445 72.5673 120.039 77.4042 120.435 82.241C120.831 87.0779 120.93 91.9147 120.93 96.7516C120.93 101.588 120.732 106.425 120.435 111.262C120.039 116.099 119.544 120.936 118.455 125.773Z" fill="#021341"/>
<path d="M113.506 120.344C112.516 116.395 111.922 112.447 111.526 108.597C111.13 104.649 111.031 100.7 111.031 96.8503C111.031 92.9019 111.229 88.9534 111.526 85.1037C111.922 81.1552 112.417 77.2068 113.506 73.3571C114.496 77.3055 115.09 81.254 115.486 85.1037C115.882 89.0521 115.981 93.0006 115.981 96.8503C115.981 100.799 115.783 104.747 115.486 108.597C115.09 112.447 114.595 116.395 113.506 120.344Z" fill="#021341"/>
<path d="M108.556 124.391C107.566 119.751 106.972 115.21 106.576 110.571C106.18 105.932 106.081 101.391 106.081 96.7515C106.081 92.112 106.279 87.5713 106.576 82.9319C106.972 78.2925 107.467 73.7517 108.556 69.1123C109.546 73.7517 110.14 78.2925 110.536 82.9319C110.932 87.5713 111.031 92.112 111.031 96.7515C111.031 101.391 110.833 105.932 110.536 110.571C110.14 115.21 109.645 119.751 108.556 124.391Z" fill="#021341"/>
<path d="M103.605 118.863C102.615 115.211 102.021 111.46 101.625 107.807C101.229 104.155 101.13 100.404 101.13 96.7516C101.13 93.0993 101.328 89.3483 101.625 85.696C102.021 82.0437 102.516 78.2926 103.605 74.6403C104.595 78.2926 105.189 82.0437 105.585 85.696C105.981 89.3483 106.08 93.0993 106.08 96.7516C106.08 100.404 105.882 104.155 105.585 107.807C105.189 111.46 104.694 115.112 103.605 118.863Z" fill="#021341"/>
<path d="M98.6562 118.863C97.6662 115.211 97.0722 111.46 96.6762 107.807C96.2802 104.155 96.1812 100.404 96.1812 96.7516C96.1812 93.0993 96.3792 89.3483 96.6762 85.696C97.0722 82.0437 97.5672 78.2926 98.6562 74.6403C99.6462 78.2926 100.24 82.0437 100.636 85.696C101.032 89.3483 101.131 93.0993 101.131 96.7516C101.131 100.404 100.933 104.155 100.636 107.807C100.24 111.46 99.7452 115.112 98.6562 118.863Z" fill="#021341"/>
<path d="M93.7054 121.627C92.7154 117.481 92.1215 113.335 91.7255 109.189C91.3295 105.043 91.2305 100.897 91.2305 96.7516C91.2305 92.6057 91.4285 88.4598 91.7255 84.314C92.1215 80.1681 92.6164 76.0222 93.7054 71.8763C94.6954 76.0222 95.2894 80.1681 95.6854 84.314C96.0814 88.4598 96.1804 92.6057 96.1804 96.7516C96.1804 100.897 95.9824 105.043 95.6854 109.189C95.2894 113.335 94.7944 117.481 93.7054 121.627Z" fill="#021341"/>
<path d="M88.7553 118.073C87.7653 114.52 87.1713 110.966 86.7753 107.412C86.3793 103.859 86.2803 100.305 86.2803 96.7516C86.2803 93.198 86.4783 89.6444 86.7753 86.0908C87.1713 82.5372 87.6663 78.9836 88.7553 75.43C89.7453 78.9836 90.3392 82.5372 90.7352 86.0908C91.1312 89.6444 91.2302 93.198 91.2302 96.7516C91.2302 100.305 91.0322 103.859 90.7352 107.412C90.3392 110.966 89.8443 114.52 88.7553 118.073Z" fill="#021341"/>
<path d="M83.806 127.155C82.816 122.12 82.222 116.987 81.8261 111.953C81.4301 106.919 81.3311 101.786 81.3311 96.7516C81.3311 91.7173 81.5291 86.5843 81.8261 81.55C82.222 76.5158 82.717 71.3828 83.806 66.3485C84.796 71.3828 85.39 76.5158 85.786 81.55C86.182 86.5843 86.281 91.7173 86.281 96.7516C86.281 101.786 86.083 106.919 85.786 111.953C85.39 116.987 84.895 122.022 83.806 127.155Z" fill="#021341"/>
<path d="M78.8558 131.399C77.8658 125.674 77.2718 119.85 76.8758 114.125C76.4799 108.4 76.3809 102.576 76.3809 96.8503C76.3809 91.1251 76.5789 85.3011 76.8758 79.5759C77.2718 73.8506 77.7668 68.0266 78.8558 62.3014C79.8458 68.0266 80.4398 73.8506 80.8358 79.5759C81.2318 85.3011 81.3308 91.1251 81.3308 96.8503C81.3308 102.576 81.1328 108.4 80.8358 114.125C80.4398 119.85 79.9448 125.575 78.8558 131.399Z" fill="#021341"/>
<path d="M73.9062 129.524C72.9162 124.095 72.3222 118.567 71.9262 113.138C71.5302 107.709 71.4312 102.181 71.4312 96.7516C71.4312 91.3225 71.6292 85.7947 71.9262 80.3656C72.3222 74.9364 72.8172 69.4086 73.9062 63.9795C74.8962 69.4086 75.4902 74.9364 75.8862 80.3656C76.2822 85.7947 76.3812 91.3225 76.3812 96.7516C76.3812 102.181 76.1832 107.709 75.8862 113.138C75.4902 118.567 74.9952 123.996 73.9062 129.524Z" fill="#021341"/>
<path d="M68.9562 124.489C67.9662 119.85 67.3722 115.211 66.9762 110.67C66.5802 106.03 66.4812 101.391 66.4812 96.8503C66.4812 92.2109 66.6792 87.5715 66.9762 83.0308C67.3722 78.3913 67.8672 73.7519 68.9562 69.2112C69.9462 73.8506 70.5402 78.49 70.9362 83.0308C71.3321 87.6702 71.4311 92.3096 71.4311 96.8503C71.4311 101.49 71.2331 106.129 70.9362 110.67C70.5402 115.211 70.0452 119.85 68.9562 124.489Z" fill="#021341"/>
<path d="M64.0057 121.726C63.0157 117.58 62.4218 113.434 62.0258 109.288C61.6298 105.142 61.5308 100.996 61.5308 96.8503C61.5308 92.7044 61.7288 88.5585 62.0258 84.4127C62.4218 80.2668 62.9167 76.1209 64.0057 71.975C64.9957 76.1209 65.5897 80.2668 65.9857 84.4127C66.3817 88.5585 66.4807 92.7044 66.4807 96.8503C66.4807 100.996 66.2827 105.142 65.9857 109.288C65.5897 113.335 65.0947 117.481 64.0057 121.726Z" fill="#021341"/>
<path d="M59.0563 118.567C58.0663 114.914 57.4723 111.262 57.0763 107.709C56.6803 104.056 56.5813 100.404 56.5813 96.8503C56.5813 93.1979 56.7793 89.5456 57.0763 85.992C57.4723 82.3397 57.9673 78.6874 59.0563 75.1338C60.0462 78.7861 60.6402 82.4384 61.0362 85.992C61.4322 89.6443 61.5312 93.2967 61.5312 96.8503C61.5312 100.503 61.3332 104.155 61.0362 107.709C60.6402 111.262 60.1452 114.914 59.0563 118.567Z" fill="#021341"/>
<path d="M54.1061 121.726C53.1161 117.58 52.5221 113.434 52.1261 109.288C51.7301 105.142 51.6311 100.996 51.6311 96.8503C51.6311 92.7044 51.8291 88.5585 52.1261 84.4127C52.5221 80.2668 53.0171 76.1209 54.1061 71.975C55.0961 76.1209 55.6901 80.2668 56.0861 84.4127C56.4821 88.5585 56.5811 92.7044 56.5811 96.8503C56.5811 100.996 56.3831 105.142 56.0861 109.288C55.6901 113.335 55.1951 117.481 54.1061 121.726Z" fill="#021341"/>
<path d="M49.1571 113.335C48.1671 110.571 47.5731 107.807 47.1771 105.043C46.7811 102.279 46.6821 99.5155 46.6821 96.7516C46.6821 93.9877 46.8801 91.2238 47.1771 88.4598C47.5731 85.6959 48.0681 82.932 49.1571 80.1681C50.1471 82.932 50.7411 85.6959 51.1371 88.4598C51.5331 91.2238 51.6321 93.9877 51.6321 96.7516C51.6321 99.5155 51.4341 102.279 51.1371 105.043C50.7411 107.807 50.2461 110.571 49.1571 113.335Z" fill="#021341"/>
<path d="M44.2067 106.623C43.2167 104.945 42.6227 103.365 42.2267 101.687C41.8307 100.009 41.7317 98.4297 41.7317 96.7516C41.7317 95.0735 41.9297 93.4941 42.2267 91.816C42.6227 90.138 43.1177 88.5586 44.2067 86.8805C45.1967 88.5586 45.7906 90.138 46.1866 91.816C46.5826 93.4941 46.6816 95.0735 46.6816 96.7516C46.6816 98.4297 46.4836 100.009 46.1866 101.687C45.7906 103.365 45.2956 104.945 44.2067 106.623Z" fill="#021341"/>
<path d="M39.2565 102.181C38.2665 101.292 37.6725 100.404 37.2765 99.4168C36.8805 98.5284 36.7815 97.64 36.7815 96.6529C36.7815 95.7645 36.9795 94.8761 37.2765 93.889C37.6725 93.0006 38.1675 92.1122 39.2565 91.1251C40.2464 92.0135 40.8404 92.9019 41.2364 93.889C41.6324 94.7774 41.7314 95.6658 41.7314 96.6529C41.7314 97.5413 41.5334 98.4297 41.2364 99.4168C40.8404 100.404 40.3454 101.292 39.2565 102.181Z" fill="#021341"/>
<path d="M34.3063 102.477C33.3163 101.49 32.7223 100.601 32.3263 99.6141C31.9303 98.627 31.8313 97.7386 31.8313 96.7515C31.8313 95.7644 32.0293 94.876 32.3263 93.8889C32.7223 92.9018 33.2173 92.0134 34.3063 91.0262C35.2963 92.0134 35.8903 92.9018 36.2863 93.8889C36.6823 94.876 36.7813 95.7644 36.7813 96.7515C36.7813 97.7386 36.5833 98.627 36.2863 99.6141C35.8903 100.601 35.3953 101.588 34.3063 102.477Z" fill="#021341"/>
<path d="M29.3561 104.155C28.3661 102.872 27.7721 101.687 27.3761 100.404C26.9801 99.1206 26.8811 97.9361 26.8811 96.6529C26.8811 95.3696 27.0791 94.1851 27.3761 92.9018C27.7721 91.6186 28.2671 90.4341 29.3561 89.1508C30.3461 90.4341 30.9401 91.6186 31.3361 92.9018C31.7321 94.1851 31.8311 95.3696 31.8311 96.6529C31.8311 97.9361 31.6331 99.1206 31.3361 100.404C30.9401 101.687 30.4451 102.97 29.3561 104.155Z" fill="#021341"/>
<path d="M24.4056 104.155C23.4157 102.872 22.8217 101.687 22.4257 100.404C22.0297 99.1206 21.9307 97.9361 21.9307 96.6529C21.9307 95.3696 22.1287 94.1851 22.4257 92.9018C22.8217 91.6186 23.3167 90.4341 24.4056 89.1508C25.3956 90.4341 25.9896 91.6186 26.3856 92.9018C26.7816 94.1851 26.8806 95.3696 26.8806 96.6529C26.8806 97.9361 26.6826 99.1206 26.3856 100.404C25.9896 101.687 25.4946 102.97 24.4056 104.155Z" fill="#021341"/>
<path d="M19.4567 104.155C18.4667 102.872 17.8727 101.687 17.4767 100.404C17.0807 99.1206 16.9817 97.9361 16.9817 96.6529C16.9817 95.3696 17.1797 94.1851 17.4767 92.9018C17.8727 91.6186 18.3677 90.4341 19.4567 89.1508C20.4467 90.4341 21.0407 91.6186 21.4367 92.9018C21.8327 94.1851 21.9317 95.3696 21.9317 96.6529C21.9317 97.9361 21.7337 99.1206 21.4367 100.404C21.0407 101.687 20.5457 102.97 19.4567 104.155Z" fill="#021341"/>
<path d="M14.5065 106.623C13.5165 104.945 12.9225 103.365 12.5265 101.687C12.1305 100.009 12.0315 98.4297 12.0315 96.7516C12.0315 95.0735 12.2295 93.4941 12.5265 91.816C12.9225 90.138 13.4175 88.5586 14.5065 86.8805C15.4965 88.5586 16.0905 90.138 16.4865 91.816C16.8825 93.4941 16.9815 95.0735 16.9815 96.7516C16.9815 98.4297 16.7835 100.009 16.4865 101.687C16.0905 103.365 15.5955 104.945 14.5065 106.623Z" fill="#021341"/>
</svg>
