<svg width="265" height="160" viewBox="0 0 265 160" fill="none" xmlns="http://www.w3.org/2000/svg">
<path d="M261.307 61.1316C260.127 62.902 258.356 64.5249 255.848 65.8527L101.973 154.814C93.7107 159.683 81.023 160.126 73.7939 155.995L6.37184 116.899C3.27367 115.128 1.79835 112.768 1.50328 110.407C0.765624 106.424 1.94588 101.703 1.94588 101.703L6.37184 101.998C6.96196 101.555 7.55209 101.113 8.28975 100.67L162.313 11.856C170.575 6.98744 183.263 6.54484 190.492 10.6757L257.914 49.6242L263.077 49.3291C263.077 49.3291 264.995 54.9353 261.602 60.5415C261.602 60.5415 261.602 60.5415 261.602 60.689C261.454 60.8366 261.454 60.9841 261.307 61.1316Z" fill="#150035"/>
<path d="M73.3512 156.585L5.92908 117.636C2.83091 115.866 1.06053 113.358 0.765465 110.703C0.0278051 106.572 1.06053 101.851 1.20806 101.703L1.35559 101.113L6.22415 101.408C6.81427 100.965 7.4044 100.523 7.99453 100.228L162.018 11.1185C170.575 6.24991 183.558 5.65978 190.934 9.93821L258.209 48.7391L262.044 47.7064L263.815 47.8539C263.815 47.8539 266.028 54.7879 262.487 60.8367C262.487 60.9842 262.34 60.9842 262.34 61.1318L262.192 61.2793C260.864 63.1972 258.946 64.8201 256.586 66.2954L102.267 155.405C97.5464 158.06 91.6451 159.536 85.8914 159.536C81.3179 159.536 76.7444 158.503 73.3512 156.585ZM261.307 61.1318L260.717 60.5416C260.717 60.3941 260.864 60.3941 260.864 60.2466C263.372 55.9682 262.782 51.6897 262.34 50.2144L257.619 50.5095L190.049 11.4135C183.115 7.43017 170.722 7.87276 162.756 12.5938L8.73219 101.408C8.14206 101.703 7.55193 102.146 6.81427 102.588L5.92908 103.178L5.78155 102.588L2.53585 102.441C2.24078 103.769 1.79819 106.867 2.24078 109.817L2.38832 110.26C2.53585 112.62 4.1587 114.538 6.81427 116.161L74.2364 155.257C81.1704 159.24 93.563 158.798 101.53 154.077L255.553 65.2627C257.914 63.9349 259.536 62.4596 260.717 60.6892L261.307 61.1318Z" fill="#150035"/>
<path d="M258.209 42.8378L190.787 3.88936C183.558 -0.241536 171.018 0.20106 162.608 5.06961L8.73252 94.0313C0.470731 98.8999 -0.561992 106.129 6.66707 110.26L74.0891 149.208C81.3182 153.339 93.8584 152.897 102.268 148.028L256.291 59.2138C264.553 54.3453 265.438 46.9687 258.209 42.8378Z" fill="white"/>
<path d="M73.6461 149.798L6.22399 110.85C2.83076 108.932 0.912842 106.129 0.912842 103.178C0.912842 99.6376 3.56842 95.9493 8.1419 93.2938L162.313 4.47955C170.87 -0.389005 183.852 -0.979133 191.229 3.29929L258.651 42.2477C262.044 44.1656 263.962 46.9687 263.962 49.9194C263.962 53.4601 261.307 57.1484 256.733 59.804L102.562 148.618C97.8413 151.274 91.94 152.749 86.1863 152.749C81.6128 152.749 77.0393 151.716 73.6461 149.798ZM163.05 5.80733L9.0271 94.6215C4.8962 96.982 2.53569 100.08 2.53569 103.178C2.53569 105.686 4.15854 107.899 6.96165 109.522L74.3837 148.471C81.3177 152.454 93.7104 152.011 101.677 147.29L255.7 58.4762C259.831 56.1157 262.192 53.0175 262.192 49.9194C262.192 47.4113 260.569 45.1984 257.766 43.5755L190.344 4.62708C187.246 2.8567 182.967 1.97151 178.541 1.97151C173.23 1.82397 167.476 3.15176 163.05 5.80733Z" fill="#150035"/>
<path d="M88.9547 152.443L88.0696 152.452L88.1314 158.353L89.0165 158.343L88.9547 152.443Z" fill="#39A1FF"/>
<path d="M5.48624 116.309L6.37143 116.013C5.48624 112.915 6.37143 110.112 6.37143 110.112L5.48624 109.817C5.33871 109.965 4.45352 112.915 5.48624 116.309Z" fill="#39A1FF"/>
<path d="M8.14225 117.784L9.02744 117.489C8.14225 114.391 9.02744 111.588 9.02744 111.588L8.14225 111.293C7.99472 111.44 7.10953 114.538 8.14225 117.784Z" fill="#39A1FF"/>
<path d="M255.996 66.1478C256.586 63.6397 256.438 59.8039 256.438 59.6564H255.553C255.553 59.6564 255.701 63.4922 255.111 65.8527L255.996 66.1478Z" fill="#39A1FF"/>
<path d="M258.946 64.525C259.536 62.0169 259.389 58.1811 259.389 58.0336H258.504C258.504 58.0336 258.651 61.8694 258.061 64.2299L258.946 64.525Z" fill="#39A1FF"/>
<path d="M210.851 90.048C210.408 89.753 210.26 89.4579 210.26 88.8678V88.5727C210.26 87.54 210.998 86.3597 212.031 85.7696L221.473 80.3109C222.063 80.0159 222.653 79.8683 223.096 80.1634C223.538 80.4585 223.686 80.7535 223.686 81.3437V81.6387C223.686 82.6714 222.948 83.8517 221.916 84.4418L212.473 89.9005C212.178 90.048 211.736 90.1956 211.441 90.1956C211.146 90.1956 210.998 90.1956 210.851 90.048ZM221.916 81.1961L212.473 86.6548C211.736 87.0974 211.146 87.9826 211.146 88.7203V88.8678C211.146 89.0153 211.146 89.1628 211.293 89.3104C211.441 89.3104 211.588 89.3104 212.031 89.1628L221.473 83.7042C222.211 83.2616 222.801 82.3764 222.801 81.6387V81.4912C222.801 81.3437 222.801 81.1961 222.653 81.0486H222.506C222.211 81.0486 222.063 81.0486 221.916 81.1961Z" fill="#39A1FF"/>
<path d="M195.655 98.7524C195.212 98.4573 195.065 98.1623 195.065 97.5721V97.2771C195.065 96.2443 195.802 95.0641 196.835 94.474L206.277 89.0153C206.867 88.7202 207.457 88.5727 207.9 88.8677C208.343 89.1628 208.49 89.4579 208.49 90.048V90.3431C208.49 91.3758 207.752 92.556 206.72 93.1462L197.278 98.6048C196.983 98.7524 196.54 98.8999 196.245 98.8999C196.097 98.8999 195.802 98.8999 195.655 98.7524ZM206.72 89.9005L197.278 95.3592C196.54 95.8017 195.95 96.6869 195.95 97.4246V97.7197C195.95 97.8672 195.95 98.0147 196.097 98.1623C196.245 98.1623 196.393 98.1622 196.835 98.0147L206.277 92.556C207.015 92.1134 207.605 91.2283 207.605 90.4906V90.1955C207.605 90.048 207.605 89.9005 207.457 89.7529H207.31C207.162 89.7529 206.867 89.7529 206.72 89.9005Z" fill="#39A1FF"/>
<path d="M228.702 79.7207C228.259 79.4257 228.112 79.1306 228.112 78.5405V78.2454C228.112 77.2127 228.849 76.0324 229.882 75.4423L235.193 72.3441C235.783 72.0491 236.374 71.9015 236.816 72.1966C237.259 72.4917 237.406 72.7867 237.406 73.3769V73.6719C237.406 74.7046 236.669 75.8849 235.636 76.475L230.325 79.5732C230.03 79.7207 229.587 79.8683 229.292 79.8683C229.145 79.8683 228.849 79.8683 228.702 79.7207ZM235.636 73.2293L230.325 76.3275C229.587 76.7701 228.997 77.6553 228.997 78.3929V78.5405C228.997 78.688 228.997 78.8355 229.145 78.9831C229.292 78.9831 229.44 78.9831 229.882 78.8355L235.193 75.7374C235.931 75.2948 236.521 74.4096 236.521 73.6719V73.3769C236.521 73.2293 236.521 73.0818 236.374 72.9343H236.226C236.079 73.0818 235.783 73.0818 235.636 73.2293Z" fill="#39A1FF"/>
<path d="M232.833 76.18V75.8849C232.833 74.9998 232.095 74.7047 231.357 75.2948L230.177 76.0325C229.292 76.4751 228.702 77.6553 228.702 78.393V78.688C228.702 79.5732 229.44 79.8683 230.177 79.2782L231.357 78.5405C232.095 78.0979 232.833 76.9177 232.833 76.18Z" fill="#39A1FF"/>
<path d="M228.702 79.7207C228.259 79.4256 228.112 79.1306 228.112 78.5404V78.2454C228.112 77.2126 228.849 76.0324 229.882 75.4423L231.062 74.7046C231.653 74.4095 232.243 74.262 232.685 74.5571C233.128 74.8521 233.275 75.1472 233.275 75.7373V76.0324C233.275 77.0651 232.538 78.2454 231.505 78.8355L230.325 79.5732C230.03 79.7207 229.587 79.8682 229.292 79.8682C229.145 79.8682 228.849 79.8682 228.702 79.7207ZM232.39 75.8849C232.39 75.7373 232.39 75.5898 232.243 75.4423C232.095 75.4423 231.948 75.4423 231.505 75.5898L230.325 76.3275C229.587 76.7701 228.997 77.6552 228.997 78.3929V78.5404C228.997 78.688 228.997 78.8355 229.145 78.983C229.292 78.983 229.44 78.983 229.882 78.8355L231.062 78.0978C231.8 77.6552 232.39 76.7701 232.39 76.0324V75.8849Z" fill="#39A1FF"/>
<path d="M84.9687 152.407L84.8911 158.455L85.7762 158.466L85.8538 152.418L84.9687 152.407Z" fill="#39A1FF"/>
<path d="M73.885 149.659L73.8074 155.707L74.6925 155.719L74.7701 149.67L73.885 149.659Z" fill="#39A1FF"/>
<path d="M97.3634 150.82L96.4783 150.83L96.5401 156.73L97.4252 156.721L97.3634 150.82Z" fill="#39A1FF"/>
<path d="M111.084 143.444L110.198 143.453L110.26 149.354L111.145 149.345L111.084 143.444Z" fill="#39A1FF"/>
<path d="M10.0602 98.7523L165.854 9.20048C172.493 5.36465 183.41 5.36465 190.049 9.20048L203.917 17.3147C207.163 19.2326 208.933 22.9209 207.9 26.4617C207.9 26.7568 207.753 26.9043 207.753 27.1994L207.605 27.4944C207.458 28.2321 207.9 29.1173 208.933 29.7074C209.966 30.2975 211.441 30.5926 212.769 30.4451C212.769 30.4451 213.212 30.4451 213.359 30.4451H213.507C220.736 29.5599 227.965 31.1827 234.161 34.871L254.816 46.8211C258.504 48.8866 258.504 52.4273 254.816 54.4928L99.0219 143.897C92.383 147.733 81.4656 147.733 74.8267 143.897L10.0602 106.424C6.37187 104.211 6.37187 100.818 10.0602 98.7523Z" fill="#39A1FF"/>
<path d="M74.384 144.487L9.61746 107.014C7.69954 105.834 6.51929 104.359 6.51929 102.588C6.51929 100.965 7.55201 99.3425 9.61746 98.1622L165.559 8.61032C172.493 4.62696 183.558 4.62696 190.492 8.61032L204.36 16.7246C207.9 18.79 209.671 22.9209 208.638 26.6092C208.638 26.9043 208.49 27.0518 208.343 27.3469V27.4944C208.195 28.0845 208.638 28.5271 209.376 28.9697C210.261 29.5599 211.589 29.7074 212.916 29.7074H213.359H213.507C220.588 28.8222 228.112 30.445 234.604 34.2809L255.258 46.231C257.176 47.4112 258.356 48.8865 258.356 50.6569C258.356 52.2798 257.324 53.9026 255.258 55.0829L99.3169 144.487C95.9236 146.405 91.3501 147.438 86.9242 147.438C82.3507 147.438 77.9247 146.405 74.384 144.487ZM213.654 31.0352H213.507C213.359 31.0352 212.916 31.0352 212.916 31.0352C211.294 31.1827 209.818 30.8876 208.638 30.15C207.31 29.4123 206.72 28.3796 207.015 27.1993C207.015 27.1993 207.163 26.9043 207.163 26.7568C207.31 26.6092 207.31 26.3142 207.31 26.1666C208.195 22.9209 206.72 19.5277 203.622 17.7573L189.754 9.64305C183.263 5.80722 172.64 5.80722 166.149 9.64305L10.3551 99.3424C8.8798 100.228 7.99461 101.408 7.99461 102.588C7.99461 103.768 8.8798 104.949 10.3551 105.834L75.1216 143.307C81.613 147.143 92.2353 147.143 98.7267 143.307L254.52 53.7551C255.996 52.8699 256.881 51.6896 256.881 50.5094C256.881 49.3291 255.996 48.1489 254.52 47.2637L233.866 35.3136C228.702 32.363 222.949 30.7401 217.195 30.7401C216.015 30.7401 214.834 30.8876 213.654 31.0352Z" fill="#39A1FF"/>
<path d="M211.441 24.9865C210.113 25.7242 210.113 27.052 211.441 27.9372C212.768 28.6748 215.129 28.6748 216.457 27.9372C217.785 27.1995 217.785 25.8717 216.457 24.9865C215.129 24.1013 212.916 24.1013 211.441 24.9865Z" fill="#150035"/>
<path d="M213.211 26.0191C212.768 26.3142 212.768 26.6093 213.211 26.9043C213.653 27.1994 214.244 27.1994 214.686 26.9043C215.129 26.6093 215.129 26.3142 214.686 26.0191C214.244 25.7241 213.653 25.7241 213.211 26.0191Z" fill="white"/>
<path d="M175.591 13.0365C174.115 13.6266 172.05 13.184 171.607 13.0365C171.755 13.184 172.64 14.5118 171.607 15.2495C173.083 14.6593 175.148 15.1019 175.591 15.2495C175.443 15.1019 174.558 13.9217 175.591 13.0365Z" fill="#150035"/>
<path d="M181.197 16.4296C179.722 17.0197 177.656 16.5771 177.214 16.4296C177.361 16.5771 178.246 17.9049 177.214 18.6426C178.689 18.0524 180.754 18.495 181.197 18.6426C181.049 18.495 180.164 17.1672 181.197 16.4296C181.345 16.4296 181.197 16.2821 181.197 16.4296Z" fill="#150035"/>
<path d="M186.951 19.6753C185.475 20.2654 183.41 19.8228 182.967 19.6753C183.115 19.8228 184 21.1506 182.967 21.8883C184.443 21.2981 186.508 21.7407 186.951 21.8883C186.803 21.7407 185.918 20.5605 186.951 19.6753Z" fill="#150035"/>
<path d="M192.557 22.9209C191.082 23.511 189.016 23.0684 188.574 22.9209C188.721 23.0684 189.606 24.3962 188.574 25.1339C190.049 24.5437 192.114 24.9863 192.557 25.1339C192.557 24.9863 191.672 23.8061 192.557 22.9209C192.705 22.9209 192.705 22.9209 192.557 22.9209Z" fill="#150035"/>
<path d="M198.311 26.3142C196.835 26.9043 194.77 26.4617 194.327 26.3142C194.475 26.4617 195.36 27.7895 194.327 28.5272C195.802 27.9371 197.868 28.3797 198.311 28.5272C198.163 28.3797 197.278 27.1994 198.311 26.3142Z" fill="#150035"/>
<path d="M215.425 36.1989C213.949 36.789 211.884 36.3464 211.441 36.1989C211.589 36.3464 212.474 37.6742 211.441 38.4118C212.916 37.8217 214.982 38.2643 215.425 38.4118C215.277 38.2643 214.392 37.084 215.425 36.1989Z" fill="#150035"/>
<path d="M221.178 39.4447C219.702 40.0348 217.637 39.5922 217.194 39.4447C217.342 39.5922 218.227 40.92 217.194 41.6577C218.67 41.0676 220.735 41.5101 221.178 41.6577C221.03 41.5101 220.145 40.3299 221.178 39.4447Z" fill="#150035"/>
<path d="M186.951 13.0365C185.475 13.6266 183.41 13.184 182.967 13.0365C183.115 13.184 184 14.5118 182.967 15.2495C184.443 14.6593 186.508 15.1019 186.951 15.2495C186.803 15.1019 185.918 13.9217 186.951 13.0365Z" fill="#150035"/>
<path d="M192.705 16.4296C191.229 17.0197 189.164 16.5771 188.721 16.4296C188.869 16.5771 189.754 17.9049 188.721 18.6426C190.197 18.0524 192.262 18.495 192.705 18.6426C192.557 18.495 191.672 17.1672 192.705 16.4296C192.705 16.4296 192.705 16.2821 192.705 16.4296Z" fill="#150035"/>
<path d="M198.311 19.6753C196.835 20.2654 194.77 19.8228 194.327 19.6753C194.475 19.8228 195.36 21.1506 194.327 21.8883C195.802 21.2981 197.868 21.7407 198.311 21.8883C198.163 21.7407 197.278 20.5605 198.311 19.6753C198.458 19.6753 198.311 19.6753 198.311 19.6753Z" fill="#150035"/>
<path d="M226.784 36.1989C225.309 36.789 223.244 36.3464 222.801 36.1989C222.949 36.3464 223.834 37.6742 222.801 38.4118C224.276 37.8217 226.342 38.2643 226.784 38.4118C226.784 38.2643 225.899 37.084 226.784 36.1989C226.932 36.1989 226.932 36.1989 226.784 36.1989Z" fill="#150035"/>
<path d="M226.784 42.6902C225.309 43.2803 223.244 42.8377 222.801 42.6902C222.949 42.8377 223.834 44.1655 222.801 44.9032C224.276 44.313 226.342 44.7556 226.784 44.9032C226.637 44.7556 225.752 43.5754 226.784 42.6902C226.932 42.6902 226.784 42.6902 226.784 42.6902Z" fill="#150035"/>
<path d="M232.538 46.0836C231.063 46.6737 228.998 46.2312 228.555 46.0836C228.702 46.2312 229.588 47.5589 228.555 48.2966C230.03 47.7065 232.096 48.1491 232.538 48.2966C232.391 48.1491 231.506 46.9688 232.538 46.0836Z" fill="#150035"/>
<path d="M238.292 49.3292C236.817 49.9194 234.751 49.4768 234.309 49.3292C234.456 49.4768 235.341 50.8045 234.309 51.5422C235.784 50.9521 237.849 51.3947 238.292 51.5422C238.144 51.3947 237.259 50.2144 238.292 49.3292Z" fill="#150035"/>
<path d="M243.898 52.575C242.423 53.1651 240.357 52.7225 239.915 52.575C240.062 52.7225 240.948 54.0503 239.915 54.7879C241.39 54.1978 243.456 54.6404 243.898 54.7879C243.751 54.7879 242.865 53.4601 243.898 52.575Z" fill="#150035"/>
<path d="M232.538 39.4447C231.063 40.0348 228.998 39.5922 228.555 39.4447C228.702 39.5922 229.588 40.92 228.555 41.6577C230.03 41.0676 232.096 41.5101 232.538 41.6577C232.391 41.5101 231.506 40.3299 232.538 39.4447Z" fill="#150035"/>
<path d="M238.292 42.6902C236.817 43.2803 234.751 42.8377 234.309 42.6902C234.456 42.8377 235.341 44.1655 234.309 44.9032C235.784 44.313 237.849 44.7556 238.292 44.9032C238.144 44.7556 237.259 43.5754 238.292 42.6902Z" fill="#150035"/>
<path d="M243.898 46.0836C242.423 46.6737 240.357 46.2312 239.915 46.0836C240.062 46.2312 240.948 47.5589 239.915 48.2966C241.39 47.7065 243.456 48.1491 243.898 48.2966C243.751 48.1491 242.865 46.9688 243.898 46.0836C244.046 46.0836 244.046 46.0836 243.898 46.0836Z" fill="#150035"/>
<path d="M26.4358 104.211C24.9604 104.801 22.895 104.359 22.4524 104.211C22.5999 104.359 23.4851 105.686 22.4524 106.424C23.9277 105.834 25.9932 106.277 26.4358 106.424C26.2882 106.277 25.403 105.096 26.4358 104.211Z" fill="#150035"/>
<path d="M32.0422 107.457C30.5669 108.047 28.5014 107.604 28.0588 107.457C28.2064 107.604 29.0916 108.932 28.0588 109.67C29.5342 109.079 31.5996 109.522 32.0422 109.67C31.8947 109.522 31.0095 108.342 32.0422 107.457C32.1897 107.457 32.0422 107.457 32.0422 107.457Z" fill="#150035"/>
<path d="M37.7956 110.703C36.3203 111.293 34.2549 110.85 33.8123 110.703C33.9598 110.85 34.845 112.178 33.8123 112.915C35.2876 112.325 37.353 112.768 37.7956 112.915C37.6481 112.768 36.7629 111.588 37.7956 110.703Z" fill="#150035"/>
<path d="M43.5498 114.095C42.0744 114.686 40.009 114.243 39.5664 114.095C39.7139 114.243 40.5991 115.571 39.5664 116.308C41.0417 115.718 43.1072 116.161 43.5498 116.308C43.4022 116.161 42.517 114.981 43.5498 114.095Z" fill="#150035"/>
<path d="M60.5158 123.98C59.0405 124.57 56.9751 124.128 56.5325 123.98C56.68 124.128 57.5652 125.456 56.5325 126.193C58.0078 125.603 60.0732 126.046 60.5158 126.193C60.3683 126.046 59.4831 124.865 60.5158 123.98C60.6634 123.98 60.6634 123.98 60.5158 123.98Z" fill="#150035"/>
<path d="M66.2695 127.226C64.7942 127.816 62.7287 127.374 62.2861 127.226C62.4337 127.374 63.3189 128.701 62.2861 129.439C63.7615 128.849 65.8269 129.292 66.2695 129.439C66.122 129.292 65.2368 128.111 66.2695 127.226Z" fill="#150035"/>
<path d="M32.0422 100.818C30.5669 101.408 28.5014 100.965 28.0588 100.818C28.2064 100.965 29.0916 102.293 28.0588 103.031C29.5342 102.441 31.5996 102.883 32.0422 103.031C32.0422 102.883 31.157 101.703 32.0422 100.818C32.1897 100.818 32.1897 100.818 32.0422 100.818Z" fill="#150035"/>
<path d="M37.7956 104.211C36.3203 104.801 34.2549 104.359 33.8123 104.211C33.9598 104.359 34.845 105.686 33.8123 106.424C35.2876 105.834 37.353 106.277 37.7956 106.424C37.6481 106.277 36.7629 105.096 37.7956 104.211Z" fill="#150035"/>
<path d="M26.436 97.5719C24.9607 98.162 22.8952 97.7194 22.4526 97.5719C22.6002 97.7194 23.4854 99.0472 22.4526 99.7849C23.928 99.1948 25.9934 99.6373 26.436 99.7849C26.2885 99.6373 25.4033 98.4571 26.436 97.5719Z" fill="#150035"/>
<path d="M43.5498 107.457C42.0744 108.047 40.009 107.604 39.5664 107.457C39.7139 107.604 40.5991 108.932 39.5664 109.67C41.0417 109.079 43.1072 109.522 43.5498 109.67C43.4022 109.522 42.517 108.342 43.5498 107.457Z" fill="#150035"/>
<path d="M72.0232 123.98C70.5478 124.57 68.4824 124.128 68.0398 123.98C68.1873 124.128 69.0725 125.456 68.0398 126.193C69.5151 125.603 71.5806 126.046 72.0232 126.193C71.8756 126.046 70.9904 124.865 72.0232 123.98Z" fill="#150035"/>
<path d="M72.0232 130.472C70.5478 131.062 68.4824 130.619 68.0398 130.472C68.1873 130.619 69.0725 131.947 68.0398 132.685C69.5151 132.095 71.5806 132.537 72.0232 132.685C71.8756 132.685 70.9904 131.357 72.0232 130.472Z" fill="#150035"/>
<path d="M77.6294 133.865C76.154 134.455 74.0886 134.012 73.646 133.865C73.7935 134.012 74.6787 135.34 73.646 136.078C75.1213 135.488 77.1868 135.93 77.6294 136.078C77.4818 135.93 76.5966 134.75 77.6294 133.865C77.7769 133.865 77.6294 133.865 77.6294 133.865Z" fill="#150035"/>
<path d="M83.3833 137.111C81.9079 137.701 79.8425 137.258 79.3999 137.111C79.5474 137.258 80.4326 138.586 79.3999 139.324C80.8752 138.734 82.9407 139.176 83.3833 139.324C83.2357 139.176 82.3505 137.996 83.3833 137.111Z" fill="#150035"/>
<path d="M77.6294 127.226C76.154 127.816 74.0886 127.374 73.646 127.226C73.7935 127.374 74.6787 128.701 73.646 129.439C75.1213 128.849 77.1868 129.292 77.6294 129.439C77.6294 129.292 76.7442 128.111 77.6294 127.226C77.7769 127.226 77.7769 127.226 77.6294 127.226Z" fill="#150035"/>
<path d="M83.3833 130.472C81.9079 131.062 79.8425 130.619 79.3999 130.472C79.5474 130.619 80.4326 131.947 79.3999 132.685C80.8752 132.095 82.9407 132.537 83.3833 132.685C83.2357 132.685 82.3505 131.357 83.3833 130.472Z" fill="#150035"/>
<path d="M89.1369 133.865C87.6616 134.455 85.5962 134.012 85.1536 133.865C85.3011 134.012 86.1863 135.34 85.1536 136.078C86.6289 135.488 88.6943 135.93 89.1369 136.078C88.9894 135.93 88.1042 134.75 89.1369 133.865Z" fill="#150035"/>
<path d="M94.7429 136.963C93.2676 137.553 91.2021 137.11 90.7595 136.963C90.9071 137.11 91.7922 138.438 90.7595 139.176C92.2348 138.586 94.3003 139.028 94.7429 139.176C94.5954 139.028 93.7102 137.848 94.7429 136.963C94.8904 136.963 94.8904 136.963 94.7429 136.963Z" fill="#150035"/>
<path d="M49.1557 110.703C47.6804 111.293 45.615 110.85 45.1724 110.703C45.3199 110.85 46.2051 112.178 45.1724 112.915C46.6477 112.325 48.7131 112.768 49.1557 112.915C49.0082 112.768 48.123 111.588 49.1557 110.703C49.3033 110.703 49.1557 110.703 49.1557 110.703Z" fill="#150035"/>
<path d="M49.1557 117.341C47.6804 117.931 45.615 117.489 45.1724 117.341C45.3199 117.489 46.2051 118.817 45.1724 119.554C46.6477 118.964 48.7131 119.407 49.1557 119.554C49.0082 119.407 48.123 118.226 49.1557 117.341Z" fill="#150035"/>
<path d="M54.9096 120.587C53.4343 121.177 51.3689 120.735 50.9263 120.587C51.0738 120.735 51.959 122.062 50.9263 122.8C52.4016 122.21 54.467 122.652 54.9096 122.8C54.7621 122.8 53.8769 121.472 54.9096 120.587Z" fill="#150035"/>
<path d="M54.9096 114.095C53.4343 114.686 51.3689 114.243 50.9263 114.095C51.0738 114.243 51.959 115.571 50.9263 116.308C52.4016 115.718 54.467 116.161 54.9096 116.308C54.7621 116.161 53.8769 114.981 54.9096 114.095Z" fill="#150035"/>
<path d="M60.6635 117.341C59.1882 117.931 57.1228 117.489 56.6802 117.341C56.8277 117.489 57.7129 118.817 56.6802 119.554C58.1555 118.964 60.2209 119.407 60.6635 119.554C60.516 119.407 59.6308 118.226 60.6635 117.341Z" fill="#150035"/>
<path d="M66.2695 120.587C64.7942 121.177 62.7287 120.735 62.2861 120.587C62.4337 120.735 63.3189 122.062 62.2861 122.8C63.7615 122.21 65.8269 122.652 66.2695 122.8C66.122 122.8 65.2368 121.472 66.2695 120.587C66.417 120.587 66.2695 120.587 66.2695 120.587Z" fill="#150035"/>
<path d="M52.549 141.684C52.4014 141.684 52.2539 141.684 52.1064 141.537C51.6638 141.242 51.2212 140.504 51.2212 139.914C51.2212 139.619 51.3687 139.324 51.5163 139.176C51.8113 139.029 51.9588 139.029 52.2539 139.176C52.6965 139.471 53.1391 140.209 53.1391 140.799C53.1391 141.094 52.9916 141.389 52.844 141.537C52.6965 141.684 52.6965 141.684 52.549 141.684ZM51.8113 139.619C51.6638 139.619 51.6638 139.766 51.6638 139.914C51.6638 140.356 51.9588 140.799 52.2539 141.094C52.4014 141.094 52.549 141.242 52.549 141.094C52.549 141.094 52.6965 140.946 52.6965 140.799C52.6965 140.356 52.4014 139.914 52.1064 139.619C51.9588 139.619 51.9588 139.619 51.8113 139.619Z" fill="#39A1FF"/>
<path d="M56.0895 143.749C55.942 143.749 55.7944 143.749 55.6469 143.602C55.2043 143.307 54.7617 142.569 54.7617 141.979C54.7617 141.684 54.9093 141.389 55.0568 141.241C55.2043 141.094 55.4994 141.094 55.7944 141.241C56.237 141.536 56.6796 142.274 56.6796 142.864C56.6796 143.159 56.5321 143.454 56.3846 143.602C56.3846 143.749 56.237 143.749 56.0895 143.749ZM55.3518 141.684C55.2043 141.684 55.2043 141.832 55.2043 141.979C55.2043 142.422 55.4994 142.864 55.7944 143.159C55.942 143.307 56.0895 143.307 56.0895 143.159C56.0895 143.159 56.237 143.012 56.237 142.864C56.237 142.422 55.942 141.979 55.6469 141.684C55.4994 141.684 55.4994 141.684 55.3518 141.684Z" fill="#39A1FF"/>
<path d="M59.778 145.815C59.6305 145.815 59.4829 145.815 59.3354 145.667C58.8928 145.372 58.4502 144.635 58.4502 144.045C58.4502 143.75 58.5977 143.454 58.7453 143.307C59.0403 143.159 59.1879 143.159 59.4829 143.307C59.9255 143.602 60.3681 144.34 60.3681 144.93C60.3681 145.225 60.2206 145.52 60.073 145.667C59.9255 145.815 59.778 145.815 59.778 145.815ZM59.0403 143.75C59.0403 143.75 58.8928 143.75 59.0403 143.75C58.8928 143.75 58.8928 143.897 58.8928 144.045C58.8928 144.487 59.1879 144.93 59.4829 145.225C59.6305 145.372 59.778 145.372 59.778 145.225C59.778 145.225 59.9255 145.077 59.9255 144.93C59.9255 144.487 59.6305 144.045 59.3354 143.75C59.1879 143.75 59.0403 143.75 59.0403 143.75Z" fill="#39A1FF"/>
<path d="M63.319 147.88C63.1715 147.88 63.0239 147.88 62.8764 147.733C62.4338 147.438 61.9912 146.7 61.9912 146.11C61.9912 145.815 62.1387 145.52 62.2863 145.372C62.5813 145.225 62.7289 145.225 63.0239 145.372C63.4665 145.667 63.9091 146.405 63.9091 146.995C63.9091 147.29 63.7616 147.585 63.6141 147.733C63.4665 147.88 63.4665 147.88 63.319 147.88ZM62.5813 145.815C62.4338 145.815 62.4338 145.962 62.4338 146.11C62.4338 146.553 62.7289 146.995 63.0239 147.29C63.1715 147.438 63.319 147.438 63.319 147.29C63.319 147.29 63.4665 147.143 63.4665 146.995C63.4665 146.552 63.1715 146.11 62.8764 145.815C62.7289 145.815 62.7289 145.815 62.5813 145.815Z" fill="#39A1FF"/>
<path d="M66.8595 149.946C66.712 149.946 66.5645 149.946 66.4169 149.798C65.9743 149.503 65.5317 148.766 65.5317 148.175C65.5317 147.88 65.6793 147.585 65.8268 147.438C66.1219 147.29 66.2694 147.29 66.5645 147.438C67.0071 147.733 67.4497 148.471 67.4497 149.061C67.4497 149.356 67.3021 149.651 67.1546 149.798C67.1546 149.946 67.0071 149.946 66.8595 149.946ZM66.1219 147.88C65.9743 147.88 65.9743 148.028 65.9743 148.175C65.9743 148.618 66.2694 149.061 66.5645 149.356C66.712 149.503 66.8595 149.503 66.8595 149.356C66.8595 149.356 67.0071 149.208 67.0071 149.061C67.0071 148.618 66.712 148.175 66.4169 147.88C66.2694 148.028 66.2694 147.88 66.1219 147.88Z" fill="#39A1FF"/>
<path d="M14.6335 119.85C14.4859 119.85 14.3384 119.85 14.1909 119.702C13.7483 119.407 13.3057 118.669 13.3057 118.079C13.3057 117.784 13.4532 117.489 13.6007 117.341C13.8958 117.194 14.0433 117.194 14.3384 117.341C14.9285 117.784 15.2236 118.374 15.2236 118.964C15.2236 119.259 15.076 119.554 14.9285 119.702C14.781 119.702 14.6335 119.85 14.6335 119.85ZM13.8958 117.784C13.7483 117.784 13.7483 117.932 13.7483 118.079C13.7483 118.522 14.0433 118.964 14.3384 119.259C14.4859 119.407 14.6335 119.407 14.6335 119.259C14.6335 119.259 14.781 119.112 14.781 118.964C14.781 118.522 14.4859 118.079 14.1909 117.784C14.0433 117.784 13.8958 117.784 13.8958 117.784Z" fill="#39A1FF"/>
<path d="M18.1742 121.915C18.0267 121.915 17.8792 121.915 17.7316 121.767C17.289 121.472 16.8464 120.735 16.8464 120.145C16.8464 119.85 16.994 119.554 17.1415 119.407C17.4366 119.259 17.5841 119.259 17.8792 119.407C18.3218 119.702 18.7643 120.44 18.7643 121.03C18.7643 121.325 18.6168 121.62 18.4693 121.767C18.4693 121.767 18.3218 121.915 18.1742 121.915ZM17.4366 119.85C17.289 119.85 17.289 119.997 17.289 120.145C17.289 120.587 17.5841 121.03 17.8792 121.325C18.0267 121.472 18.1742 121.472 18.1742 121.325C18.1742 121.325 18.3218 121.177 18.3218 121.03C18.3218 120.587 18.0267 120.145 17.7316 119.85C17.5841 119.85 17.5841 119.85 17.4366 119.85Z" fill="#39A1FF"/>
<path d="M21.7152 123.98C21.5677 123.98 21.4202 123.98 21.2726 123.833C20.83 123.538 20.3875 122.8 20.3875 122.21C20.3875 121.915 20.535 121.62 20.6825 121.472C20.9776 121.325 21.1251 121.325 21.4202 121.472C21.8628 121.767 22.3054 122.505 22.3054 123.095C22.3054 123.39 22.1578 123.685 22.0103 123.833C22.0103 123.833 21.8628 123.98 21.7152 123.98ZM21.1251 121.915C20.9776 121.915 20.9776 121.915 21.1251 121.915C20.9776 121.915 20.9776 122.062 20.9776 122.21C20.9776 122.653 21.2726 123.095 21.5677 123.39C21.7152 123.538 21.8628 123.538 21.8628 123.39C21.8628 123.39 22.0103 123.243 22.0103 123.095C22.0103 122.653 21.7152 122.21 21.4202 121.915C21.2726 121.915 21.1251 121.915 21.1251 121.915Z" fill="#39A1FF"/>
<path d="M25.403 126.046C25.2555 126.046 25.1079 126.046 24.9604 125.898C24.3703 125.603 24.0752 124.866 24.0752 124.275C24.0752 123.98 24.2227 123.685 24.3703 123.538C24.5178 123.39 24.8129 123.39 25.1079 123.538C25.5505 123.833 25.9931 124.57 25.9931 125.161C25.9931 125.456 25.8456 125.751 25.698 125.898C25.5505 126.046 25.5505 126.046 25.403 126.046ZM24.6653 123.98C24.5178 123.98 24.5178 124.128 24.5178 124.275C24.5178 124.718 24.8129 125.161 25.1079 125.456C25.2555 125.603 25.403 125.603 25.403 125.456C25.403 125.456 25.5505 125.308 25.5505 125.161C25.5505 124.718 25.2555 124.275 24.9604 123.98C24.8129 123.98 24.6653 123.98 24.6653 123.98Z" fill="#39A1FF"/>
<path d="M28.9438 128.111C28.7962 128.111 28.6487 128.111 28.5012 127.964C28.0586 127.669 27.616 126.931 27.616 126.341C27.616 126.046 27.7635 125.751 27.911 125.603C28.0586 125.456 28.3536 125.456 28.6487 125.603C29.0913 125.898 29.5339 126.636 29.5339 127.226C29.5339 127.521 29.3864 127.816 29.2388 127.964C29.2388 128.111 29.0913 128.111 28.9438 128.111ZM28.2061 126.046C28.0586 126.046 28.0586 126.193 28.0586 126.341C28.0586 126.783 28.3536 127.226 28.6487 127.521C28.7962 127.669 28.9438 127.669 28.9438 127.521C28.9438 127.521 29.0913 127.374 29.0913 127.226C29.0913 126.783 28.7962 126.341 28.5012 126.046C28.3536 126.046 28.3536 126.046 28.2061 126.046Z" fill="#39A1FF"/>
<path d="M45.0248 137.701C44.7298 137.701 44.4347 137.553 44.1397 137.406L36.6155 132.98C35.7303 132.537 34.9927 131.357 34.9927 130.472V130.324C34.9927 129.734 35.2877 129.292 35.5828 129.144C36.0254 128.849 36.6155 128.996 37.2057 129.292L44.7298 133.717C45.615 134.308 46.3526 135.34 46.3526 136.226V136.373C46.3526 136.963 46.0576 137.406 45.7625 137.553C45.4674 137.701 45.3199 137.701 45.0248 137.701ZM36.1729 129.587C36.0254 129.587 35.8779 129.587 35.8779 129.734C35.5828 129.882 35.5828 130.177 35.5828 130.324V130.472C35.5828 131.209 36.1729 132.095 36.7631 132.39L44.2872 136.816C44.5823 136.963 45.0248 137.111 45.1724 136.963C45.4674 136.816 45.4674 136.521 45.4674 136.373V136.078C45.4674 135.34 44.8773 134.455 44.2872 134.16L36.7631 129.734C36.6155 129.734 36.468 129.587 36.1729 129.587Z" fill="#39A1FF"/>
<mask id="mask0" mask-type="alpha" maskUnits="userSpaceOnUse" x="53" y="29" width="160" height="93">
<path d="M120.414 121.767C119.086 121.767 117.758 121.472 116.725 120.882L55.2046 85.3271C54.1719 84.737 53.5818 83.8518 53.5818 82.819C53.5818 81.7863 54.1719 81.0487 55.2046 80.311L142.248 30.0026C144.314 28.8224 147.56 28.8224 149.625 30.0026L211.146 65.5578C212.179 66.1479 212.769 67.0331 212.769 68.0659C212.769 69.0986 212.179 69.8362 211.146 70.5739L124.102 120.882C123.069 121.472 121.742 121.767 120.414 121.767ZM145.937 30.4452C144.756 30.4452 143.724 30.7403 142.839 31.1829L55.7948 81.4913C55.0571 81.9338 54.762 82.3764 54.762 82.9666C54.762 83.4092 55.2046 83.9993 55.7948 84.4419L117.316 119.997C118.938 120.882 121.742 120.882 123.364 119.997L210.408 69.6887C211.146 69.2461 211.441 68.8035 211.441 68.2134C211.441 67.7708 210.998 67.1807 210.408 66.7381L148.887 31.1829C148.15 30.7403 146.969 30.4452 145.937 30.4452Z" fill="#150035"/>
<path d="M55.4548 84.8942L55.4527 84.893C54.5394 84.3711 54.0818 83.634 54.0818 82.819C54.0818 82.034 54.5044 81.4296 55.476 80.7317L142.497 30.4367C142.497 30.4366 142.497 30.4364 142.497 30.4362C143.438 29.8988 144.676 29.6174 145.937 29.6174C147.198 29.6174 148.435 29.8988 149.376 30.4362C149.376 30.4364 149.377 30.4366 149.377 30.4367L210.896 65.9907L210.898 65.9919C211.811 66.5138 212.269 67.2509 212.269 68.0659C212.269 68.8509 211.846 69.4553 210.874 70.1532L123.854 120.448C123.853 120.448 123.853 120.449 123.853 120.449C122.912 120.986 121.675 121.267 120.414 121.267C119.153 121.267 117.915 120.986 116.974 120.449C116.974 120.448 116.974 120.448 116.974 120.448L55.4548 84.8942Z" fill="#150035" stroke="black"/>
</mask>
<g mask="url(#mask0)">
<path d="M59.7781 90.1956L59.188 88.4253L60.9584 87.8351L61.5485 89.6055L59.7781 90.1956ZM131.921 89.753L130.298 88.7203L131.184 87.0975L132.806 87.9827L131.921 89.753ZM63.3189 88.8678L62.7288 87.0975L64.4991 86.5073L65.0893 88.2777L63.3189 88.8678ZM128.676 87.8351L127.053 86.9499L127.938 85.3271L129.561 86.2123L128.676 87.8351ZM66.8596 87.6876L66.2695 85.9172L68.0399 85.3271L68.63 87.0975L66.8596 87.6876ZM70.4004 86.3598L69.8103 84.5894L71.5807 83.9993L72.1708 85.7697L70.4004 86.3598ZM125.43 85.9172L123.954 85.032L124.692 83.2616L124.987 83.4092L126.463 84.2944L125.43 85.9172ZM73.9412 85.032L73.3511 83.2616L75.1214 82.6715L75.7116 84.4419L73.9412 85.032ZM122.184 84.2944L120.414 83.5567L121.151 81.7863L122.922 82.524L122.184 84.2944ZM77.4819 83.8518L76.8918 82.0814L78.6622 81.4913L79.2523 83.2616L77.4819 83.8518ZM118.643 82.819L117.02 82.0814L117.758 80.311L119.529 81.0487L118.643 82.819ZM81.0227 82.524L80.4326 80.7536L82.203 80.1635L82.7931 81.9338L81.0227 82.524ZM115.25 81.3437L113.48 80.6061L114.217 78.8357L115.988 79.5733L115.25 81.3437ZM84.4159 81.3437L84.1209 79.4258L86.0388 79.1307L86.3339 81.0487L84.4159 81.3437ZM88.2518 80.9011L87.9567 78.9832L89.8746 78.6881L90.1697 80.6061L88.2518 80.9011ZM91.9401 80.311L91.645 78.3931L93.5629 78.098L93.858 80.0159L91.9401 80.311ZM111.709 79.8684L109.939 79.1307L110.677 77.3604L112.447 78.098L111.709 79.8684ZM95.6284 79.8684L95.3333 77.9505L97.2512 77.6554L97.5463 79.5733L95.6284 79.8684ZM99.4642 79.2783L99.1691 77.3604L101.087 77.0653L101.382 78.9832L99.4642 79.2783ZM103.152 78.8357L102.857 76.9178L104.775 76.6227L105.07 78.5406L103.152 78.8357ZM108.169 78.5406L107.431 78.2456L106.841 78.3931L106.693 76.4752L107.874 76.3276L109.054 76.7702L108.169 78.5406Z" fill="white"/>
<path d="M198.458 49.9194L169.69 32.5106L146.822 47.2638L120.709 64.23L113.185 74.1146L124.692 78.8356L132.216 73.0819L167.772 60.5417L198.458 49.9194Z" fill="white"/>
<path d="M124.692 79.4258L112.447 74.4097L120.414 63.7874L169.69 31.9205L199.639 50.067L132.364 73.5245L124.692 79.4258ZM113.923 73.9671L124.545 78.2455L132.069 72.4918L197.426 49.6244L169.837 32.9533L121.152 64.3776L113.923 73.9671Z" fill="#150035"/>
<path d="M135.757 45.7887L161.87 28.8225L141.806 14.6594L92.5305 38.4121L91.6453 52.8702L135.757 45.7887Z" fill="white"/>
<path d="M91.0552 53.4602L91.9404 38.1169L141.806 14.0692L162.756 28.8224L135.757 46.2312L91.0552 53.4602ZM92.9731 38.707L92.0879 52.28L135.462 45.346L160.985 28.6749L141.806 15.1019L92.9731 38.707Z" fill="#150035"/>
<path d="M126.61 51.2471L87.8096 57.4434L90.3176 74.1145L103.891 72.4917L113.038 60.5416L126.61 51.2471Z" fill="white"/>
<path d="M89.8747 74.7048L87.3667 57.0009L128.676 50.5095L113.332 60.8368L104.038 72.9344L89.8747 74.7048ZM88.3994 57.8861L90.7599 73.672L103.595 72.0492L112.742 60.2466L124.545 52.1324L88.3994 57.8861Z" fill="#150035"/>
<path d="M83.3835 59.8042L59.3358 63.0499L50.0413 83.9994L85.3014 74.2623L83.3835 59.8042Z" fill="white"/>
<path d="M49.3037 84.737L59.0408 62.6072L83.8262 59.214L85.8916 74.5573L49.3037 84.737ZM59.6309 63.4924L50.9266 83.2617L84.8589 73.9672L83.0885 60.3942L59.6309 63.4924Z" fill="#150035"/>
<path d="M246.259 77.508L204.507 53.4603C204.36 53.3128 197.426 55.6733 188.131 58.919L191.082 78.6882L184.148 87.0976L175.886 91.8186L185.918 78.0981L183.41 60.6894C182.672 60.9844 181.787 61.2795 181.05 61.5745C177.804 62.7548 174.558 63.7875 171.165 64.9678C156.264 70.1314 137.97 76.6228 137.97 76.6228L139.888 85.1796L157.887 93.884L202.884 115.719L246.259 77.508Z" fill="white"/>
<path d="M202.737 116.161L202.442 116.014L139.446 85.4747L137.38 76.1802L137.823 76.0326C137.823 76.0326 155.674 69.6888 170.575 64.5252L171.017 64.3776C174.411 63.1974 177.656 62.0171 180.902 60.9844L183.853 59.9517L186.508 78.0981L177.656 90.1957L184 86.5074L190.639 78.3932L187.688 58.4764L188.131 58.3288C204.507 52.5751 204.655 52.7226 204.802 52.8701L247.144 77.3604L202.737 116.161ZM140.183 84.737L202.589 115.129L245.373 77.6555L204.36 53.9029C203.769 54.0504 200.671 55.0831 188.574 59.214L191.524 78.8358L184.443 87.5401L174.263 93.4414L185.476 78.0981L182.967 61.427L181.197 62.0171C178.099 63.0498 174.853 64.2301 171.755 65.4104L171.312 65.5579C157.74 70.2789 141.363 76.0326 138.56 77.0654L140.183 84.737Z" fill="#150035"/>
<path d="M81.6128 108.342L97.6938 99.7853L103.152 99.4902L141.658 123.095L119.086 131.505L82.6455 110.555L81.6128 108.342Z" fill="white"/>
<path d="M118.939 132.095L118.791 131.947L82.2032 110.85L81.0229 108.194L97.6941 99.3425L103.3 99.0475L103.448 99.195L142.839 123.39L118.939 132.095ZM82.9409 110.112L119.086 130.914L140.626 123.095L103.005 99.9327L97.8416 100.228L82.2032 108.637L82.9409 110.112Z" fill="#150035"/>
<path d="M143.577 96.5396L148.74 93.589L192.705 117.047L180.902 119.702L143.577 96.5396Z" fill="white"/>
<path d="M180.902 120.145L180.755 119.997L142.691 96.392L148.74 92.9988L194.033 117.194L180.902 120.145ZM144.462 96.5395L181.05 119.259L191.229 116.899L148.593 94.179L144.462 96.5395Z" fill="#150035"/>
<path d="M120.709 103.769L142.839 117.047L156.559 109.08L134.134 96.097L120.709 103.769Z" fill="white"/>
<path d="M142.839 117.637L142.544 117.489L120.414 104.211L121.004 103.474L142.839 116.457L155.674 109.08L133.839 96.5397L134.429 95.6545L157.592 109.08L142.839 117.637Z" fill="#150035"/>
<path d="M76.8921 89.0155L61.1062 96.5396L74.6791 104.359L87.0718 97.7199L76.8921 89.0155Z" fill="white"/>
<path d="M74.6791 104.949L60.0735 96.3919L76.7446 88.5728L77.1872 89.4579L62.1389 96.5395L74.6791 103.769L86.7768 97.2771L87.2194 98.1623L74.6791 104.949Z" fill="#150035"/>
<path d="M129.709 93.4415L120.71 88.2779L106.251 82.3766L86.4822 84.5896L80.876 87.2451L91.3507 95.5069L95.1866 93.4415L103.891 93.7365L116.284 101.261L129.709 93.4415Z" fill="white"/>
<path d="M116.283 101.703L103.743 94.179L95.3338 93.8839L91.3504 95.9494L79.9905 87.0975L86.4819 84.1468L106.251 81.9338H106.399L120.857 87.8351L130.594 93.4413L116.283 101.703ZM95.0387 92.9987L103.891 93.2938L116.283 100.67L128.676 93.4413L120.414 88.7203L106.104 82.819L86.6294 85.032L81.7609 87.245L91.3504 94.7691L95.0387 92.9987Z" fill="#150035"/>
<path d="M129.708 93.4414L134.134 96.097L120.709 103.769L116.283 101.261L129.708 93.4414Z" fill="#39A1FF"/>
<path d="M120.71 104.359L119.53 103.621L119.972 102.736L120.71 103.178L122.038 102.441L122.48 103.326L120.71 104.359ZM118.792 103.178L116.431 101.703L116.874 100.965L117.022 101.113L116.726 100.523L119.235 99.0476L119.677 99.9328L117.317 101.261L119.235 102.441L118.792 103.178ZM123.218 102.883L122.775 101.998L125.283 100.523L125.726 101.408L123.218 102.883ZM126.611 100.965L126.168 100.08L128.677 98.605L129.119 99.4902L126.611 100.965ZM120.415 99.3427L119.972 98.605L122.48 97.1297L122.923 98.0149L120.415 99.3427ZM129.857 99.0476L129.414 98.1624L131.922 96.6871L132.365 97.5723L129.857 99.0476ZM123.66 97.5723L123.218 96.6871L125.726 95.2118L126.168 96.097L123.66 97.5723ZM133.103 97.2772L132.66 96.392L133.25 96.097L132.807 95.8019L133.25 94.9167L135.168 95.9494L133.103 97.2772ZM126.906 95.6544L126.464 94.7692L128.972 93.2938L129.414 94.179L126.906 95.6544ZM131.922 95.3593L129.414 93.884L129.857 92.9988L132.365 94.4741L131.922 95.3593Z" fill="#150035"/>
<path d="M80.8752 87.245L91.35 95.5068L87.0715 97.7198L76.8918 89.0154L80.8752 87.245Z" fill="#39A1FF"/>
<path d="M87.5143 98.0148L87.0717 97.1296L89.5797 95.8018L90.0223 96.687L87.5143 98.0148ZM86.334 97.7197L84.121 95.8018L84.7111 95.0642L86.9241 96.9821L86.334 97.7197ZM90.9075 96.2444L90.4649 95.3592H90.6124L89.5797 94.6216L90.1698 93.8839L92.2353 95.5068L90.9075 96.2444ZM83.3834 95.2117L81.1704 93.2938L81.7605 92.5561L83.9735 94.474L83.3834 95.2117ZM88.842 94.0314L86.6291 92.2611L87.2192 91.5234L89.4322 93.2938L88.842 94.0314ZM80.5803 92.7037L78.3673 90.7857L78.9574 90.0481L81.1704 91.966L80.5803 92.7037ZM85.8914 91.6709L83.6784 89.9006L84.2686 89.1629L86.4815 90.9333L85.8914 91.6709ZM77.6296 90.3432L76.1543 88.8678L78.0722 87.9826L78.5148 88.8678L77.7772 89.1629L78.2197 89.6055L77.6296 90.3432ZM82.7932 89.3104L80.7278 87.6876L79.2525 88.4252L78.8099 87.54L80.8753 86.5073L83.3834 88.4252L82.7932 89.3104Z" fill="#150035"/>
</g>
<path d="M135.019 93.2938V92.4086C141.658 92.4086 147.117 89.3104 147.117 85.6221C147.117 81.9338 141.658 78.8356 135.019 78.8356C128.38 78.8356 122.922 81.9338 122.922 85.6221H122.037C122.037 81.3437 127.938 77.9504 135.019 77.9504C142.248 77.9504 148.002 81.3437 148.002 85.6221C148.15 89.9005 142.248 93.2938 135.019 93.2938Z" fill="#150035"/>
<path d="M143.724 85.032C143.724 87.8351 139.888 90.0481 135.02 90.0481C130.299 90.0481 126.315 87.8351 126.315 85.032C126.315 82.2289 130.151 78.9832 135.02 78.9832C139.888 78.8356 143.724 82.2289 143.724 85.032Z" fill="#39A1FF"/>
<path d="M135.02 90.491C129.856 90.491 125.873 88.1305 125.873 85.0323C125.873 82.0817 130.003 78.5409 135.02 78.5409C140.036 78.5409 144.167 82.0817 144.167 85.0323C144.167 87.9829 140.183 90.491 135.02 90.491ZM135.02 79.4261C130.594 79.4261 126.905 82.5243 126.905 85.0323C126.905 87.5403 130.594 89.6058 135.02 89.6058C139.445 89.6058 143.134 87.5403 143.134 85.0323C143.281 82.3767 139.445 79.4261 135.02 79.4261Z" fill="#150035"/>
<path d="M135.314 78.9833L136.79 83.1142C137.085 83.4092 138.413 86.0648 139.298 89.163C141.511 88.2778 143.576 86.95 143.576 84.8846C143.576 82.229 139.888 79.1308 135.314 78.9833Z" fill="#150035"/>
<path d="M139.003 89.7529L138.856 89.3104C138.118 86.2122 136.79 83.7041 136.495 83.5566L136.347 83.4091L134.725 78.5405H135.462C140.331 78.6881 144.167 82.0813 144.167 84.8844C144.167 86.8023 142.544 88.4252 139.593 89.6054L139.003 89.7529ZM137.38 82.9665C137.823 83.5566 139.003 85.9171 139.741 88.5727C141.364 87.835 143.134 86.8023 143.134 85.0319C143.134 82.819 140.036 80.0158 136.052 79.5733L137.38 82.9665Z" fill="#150035"/>
<path d="M126.61 84.8846C126.61 85.7698 126.463 85.9173 127.053 86.655C129.118 82.0815 132.069 81.3438 132.069 81.3438L132.364 79.4259C129.118 80.3111 126.61 82.8191 126.61 84.8846Z" fill="#150035"/>
<path d="M127.2 87.5401L126.758 87.0975C126.168 86.3599 126.168 86.0648 126.168 85.4747C126.168 85.3272 126.168 85.3271 126.168 85.1796C126.168 82.6716 128.823 80.016 132.364 79.1308L133.102 78.9833L132.659 81.9339L132.364 82.0814C132.364 82.0814 129.561 82.8191 127.643 87.0975L127.2 87.5401ZM131.921 80.016C129.266 80.9012 127.2 83.1142 127.2 84.8846C127.2 85.0321 127.2 85.1796 127.2 85.3271C127.2 85.4747 127.2 85.6222 127.2 85.6222C128.971 82.3765 131.036 81.1963 131.921 80.9012V80.016Z" fill="#150035"/>
<path d="M140.331 81.9337C140.331 83.5566 137.97 85.0319 135.02 85.0319C132.069 85.0319 129.708 83.7041 129.708 81.9337C129.708 80.3109 132.069 78.8356 135.02 78.8356C137.97 78.8356 140.331 80.3109 140.331 81.9337Z" fill="white"/>
<path d="M135.019 85.4745C131.774 85.4745 129.266 83.9992 129.266 81.9337C129.266 80.0158 131.774 78.3929 135.019 78.3929C138.265 78.3929 140.773 79.8683 140.773 81.9337C140.773 83.8516 138.265 85.4745 135.019 85.4745ZM135.019 79.4257C132.364 79.4257 130.298 80.6059 130.298 81.9337C130.298 83.2615 132.511 84.4418 135.019 84.4418C137.675 84.4418 139.74 83.2615 139.74 81.9337C139.888 80.6059 137.675 79.4257 135.019 79.4257Z" fill="#150035"/>
<path d="M120.414 121.767C119.086 121.767 117.758 121.472 116.725 120.882L55.2046 85.3268C54.1719 84.7367 53.5818 83.8515 53.5818 82.8188C53.5818 81.7861 54.1719 81.0484 55.2046 80.3108L142.248 30.0024C144.314 28.8221 147.56 28.8221 149.625 30.0024L211.146 65.5576C212.179 66.1477 212.769 67.0329 212.769 68.0656C212.769 69.0983 212.179 69.836 211.146 70.5736L124.102 120.882C123.069 121.472 121.742 121.767 120.414 121.767ZM145.937 30.445C144.756 30.445 143.724 30.74 142.839 31.1826L55.7948 81.491C55.0571 81.9336 54.762 82.3762 54.762 82.9663C54.762 83.4089 55.2046 83.9991 55.7948 84.4416L117.316 119.997C118.938 120.882 121.742 120.882 123.364 119.997L210.408 69.6885C211.146 69.2459 211.441 68.8033 211.441 68.2131C211.441 67.7705 210.998 67.1804 210.408 66.7378L148.887 31.1826C148.15 30.74 146.969 30.445 145.937 30.445Z" fill="#150035"/>
<path d="M136.495 15.1018C136.347 15.1018 136.347 15.1018 136.2 15.1018H136.052C133.692 15.1018 131.036 15.987 128.233 17.7574C119.824 23.0685 112.742 35.3137 112.594 45.3458C112.447 50.657 114.217 54.4928 117.168 56.2632L117.316 56.4107L123.364 59.9515C125.135 61.7219 126.315 64.0824 126.905 67.033L127.2 68.6559C127.2 68.8034 127.348 68.951 127.348 69.0985C127.348 69.0985 129.118 73.3769 135.905 74.2621C136.2 74.2621 136.347 74.1146 136.347 73.967L143.871 34.7235C144.461 32.8056 144.756 30.8877 145.052 28.9698L145.642 25.5766L150.363 22.6259C150.658 22.4784 145.199 15.1018 136.495 15.1018Z" fill="#39A1FF"/>
<path d="M136.2 74.8521C136.052 74.8521 136.052 74.8521 136.2 74.8521C128.971 73.967 127.053 69.3935 127.053 69.2459C127.053 69.0984 126.905 68.9509 126.905 68.8033L126.61 67.1805C126.02 64.3774 124.987 62.1644 123.217 60.394C122.479 59.9514 117.316 57.0008 117.168 56.8533L116.873 56.7057C113.627 54.7878 111.857 50.6569 112.005 45.1982C112.152 35.1661 119.381 22.4783 128.086 17.1672C130.741 15.5443 133.397 14.6591 135.757 14.5116H136.2H136.495V15.1017V14.5116C145.199 14.5116 150.806 21.7407 150.953 22.0357L151.396 22.6259L146.527 25.8716L145.937 28.9697C145.789 30.7401 145.347 32.8056 144.757 34.871L137.233 74.1145C137.085 74.5571 136.642 74.8521 136.2 74.8521ZM128.086 68.9509C128.381 69.6885 130.299 72.9342 135.905 73.6719L143.576 34.5759C144.167 32.5105 144.462 30.5926 144.757 28.8222L145.494 25.1339L149.92 22.3308C148.445 20.7079 143.576 15.8394 136.79 15.8394H136.347C133.987 15.8394 131.479 16.7246 128.823 18.3474C120.561 23.511 113.627 35.6087 113.332 45.3458C113.185 50.2143 114.808 53.9026 117.611 55.8205L117.758 55.9681L123.807 59.5088L123.955 59.6564C125.873 61.5743 127.053 64.0823 127.791 67.033L128.086 68.6558C128.086 68.6558 128.086 68.8033 128.233 68.8033L128.086 68.9509Z" fill="#150035"/>
<path d="M135.904 45.7885L142.396 26.1667C142.396 26.1667 139.888 19.3803 128.823 17.3148C128.675 17.4624 128.38 17.4624 128.233 17.6099C121.741 21.5932 116.282 29.56 113.774 37.5267C113.774 37.6742 118.643 44.0181 135.904 45.7885Z" fill="white"/>
<path d="M136.347 46.5261H135.904C118.2 44.6082 113.332 38.1168 113.332 37.9693L113.184 37.8217V37.5267C115.692 29.2649 121.446 21.2981 127.938 17.3148C128.085 17.1673 128.233 17.1673 128.38 17.1673C128.528 17.1673 128.528 17.0197 128.675 17.0197L128.823 16.8722H128.97C140.33 18.7901 142.838 25.7241 142.986 26.0192V26.1667L136.347 46.5261ZM114.512 37.5267C115.545 38.7069 121.004 43.5755 135.609 45.1983L141.806 26.3142C141.363 25.2815 138.412 19.8228 128.97 18.2C128.97 18.2 128.97 18.2 128.823 18.2C128.675 18.2 128.675 18.3475 128.528 18.3475C122.479 22.0358 117.02 29.5599 114.512 37.5267Z" fill="#150035"/>
<path d="M153.756 31.773C153.756 21.0031 146.084 16.8722 136.642 22.626C128.233 27.9371 121.151 40.1823 121.004 50.2144C120.856 56.5583 123.364 60.6892 127.2 61.8695C131.331 63.1973 134.429 66.5905 135.462 71.9016L135.757 73.5245C135.904 74.2621 136.642 74.5572 137.38 74.1146C138.117 73.672 138.855 72.6393 139.003 71.7541L139.298 70.2788C140.33 63.7874 143.134 56.7058 147.264 50.8046C151.1 44.9033 153.756 37.9693 153.756 31.773Z" fill="#150035"/>
<path d="M136.642 74.8522C136.495 74.8522 136.2 74.8522 136.052 74.7047C135.61 74.5571 135.314 74.1145 135.167 73.5244L134.872 71.9016C133.839 67.033 131.184 63.7873 127.053 62.312C122.627 60.8367 120.266 56.4107 120.414 50.0668C120.561 40.0347 127.79 27.3469 136.495 22.0358C141.216 19.0851 145.789 18.495 149.33 20.4129C152.723 22.3308 154.494 26.3142 154.494 31.6254C154.494 37.8217 151.986 44.7557 147.707 50.952C143.724 56.7058 140.921 63.4923 139.888 70.2787L139.593 71.754C139.445 72.9343 138.56 74.1145 137.675 74.5571C137.232 74.8522 136.937 74.8522 136.642 74.8522ZM144.609 20.5605C142.248 20.5605 139.74 21.4457 136.937 23.0685C128.676 28.3797 121.742 40.4773 121.594 50.2144C121.446 55.9681 123.659 60.099 127.495 61.2793C132.069 62.7546 135.019 66.4429 136.2 71.754L136.495 73.3769C136.495 73.5244 136.495 73.672 136.642 73.672C136.79 73.672 136.937 73.672 137.232 73.5244C137.823 73.2294 138.413 72.3442 138.56 71.459L138.855 69.9837C140.035 63.0497 142.839 56.1157 146.969 50.2144C151.1 44.3131 153.461 37.3791 153.461 31.6254C153.461 26.7568 151.838 23.0685 148.887 21.4457C147.412 21.0031 146.084 20.5605 144.609 20.5605Z" fill="#150035"/>
<path d="M143.883 44.9441C147.468 38.7347 147.457 32.0167 143.858 29.9389C140.26 27.8612 134.436 31.2106 130.851 37.42C127.266 43.6294 127.277 50.3474 130.876 52.4251C134.474 54.5029 140.298 51.1535 143.883 44.9441Z" fill="#150035"/>
<path d="M133.249 53.7551C132.217 53.7551 131.331 53.46 130.446 53.0174C126.61 50.8044 126.463 43.5753 130.151 37.0839C133.987 30.445 140.036 27.0518 144.019 29.2648C148.002 31.4777 148.002 38.5593 144.314 45.1982C141.363 50.5093 136.938 53.7551 133.249 53.7551ZM141.363 29.8549C138.118 29.8549 133.987 32.953 131.331 37.6741C127.938 43.5753 127.791 50.0668 131.036 51.8371C134.282 53.7551 139.888 50.5093 143.281 44.4605C146.675 38.5593 146.822 32.0679 143.576 30.2975C142.986 30.0024 142.249 29.8549 141.363 29.8549Z" fill="#39A1FF"/>
</svg>
