<svg width="116" height="112" viewBox="0 0 116 112" fill="none" xmlns="http://www.w3.org/2000/svg">
<path d="M95.6766 25.5217C100.988 25.4311 105.047 28.8651 104.447 32.1075C103.847 35.3498 100.005 37.468 95.9121 37.5322C65.2347 37.8791 42.2299 66.7343 48.5829 96.7699C49.4121 100.737 48.2013 105.04 45.1825 106.324C42.1638 107.608 37.9626 104.372 36.8521 99.2295C28.9388 61.8549 57.5069 25.9698 95.6766 25.5217Z" fill="white"/>
<path d="M90.4989 3.67439C95.5832 3.79592 99.4443 7.08796 98.8583 10.4153C98.3432 13.6436 94.4166 15.7759 90.2104 15.6841C47.7659 14.5673 15.6359 54.7947 26.0074 95.9548C27.0206 99.9787 25.8098 104.282 22.777 105.481C19.7442 106.68 15.6701 103.685 14.4316 98.8253C2.10385 50.0424 40.18 2.45993 90.4989 3.67439Z" fill="white"/>
</svg>
